{
  "accessors": [
    {
      "bufferView": 2,
      "componentType": 5126,
      "count": 1883,
      "max": [
        0.20977400243282318,
        0.32284519076347351,
        1.7963229417800903
      ],
      "min": [
        -0.15778890252113342,
        -0.37144160270690918,
        1.238787055015564
      ],
      "type": "VEC3"
    },
    {
      "bufferView": 2,
      "byteOffset": 22596,
      "componentType": 5126,
      "count": 1883,
      "max": [
        0.99957728385925293,
        0.99900072813034058,
        0.99986726045608521
      ],
      "min": [
        -0.99885439872741699,
        -0.99865871667861938,
        -0.99949240684509277
      ],
      "type": "VEC3"
    },
    {
      "bufferView": 3,
      "componentType": 5126,
      "count": 1883,
      "max": [
        0.99678999185562134,
        0.99999153614044189,
        0.99956858158111572,
        1
      ],
      "min": [
        -0.99932456016540527,
        -0.9985727071762085,
        -0.99975138902664185,
        -1
      ],
      "type": "VEC4"
    },
    {
      "bufferView": 1,
      "componentType": 5126,
      "count": 1883,
      "max": [
        0.99661797285079956,
        0.87445199489593506
      ],
      "min": [
        0.020225999876856804,
        0.10307399928569794
      ],
      "type": "VEC2"
    },
    {
      "bufferView": 0,
      "componentType": 5125,
      "count": 6795,
      "max": [
        1882
      ],
      "min": [
        0
      ],
      "type": "SCALAR"
    },
    {
      "bufferView": 2,
      "byteOffset": 45192,
      "componentType": 5126,
      "count": 3660,
      "max": [
        0.17618140578269958,
        0.12118089944124222,
        2.0260889530181885
      ],
      "min": [
        -0.23938639461994171,
        -0.14426819980144501,
        1.661357045173645
      ],
      "type": "VEC3"
    },
    {
      "bufferView": 2,
      "byteOffset": 89112,
      "componentType": 5126,
      "count": 3660,
      "max": [
        0.99954080581665039,
        0.99936884641647339,
        0.99949604272842407
      ],
      "min": [
        -0.9996371865272522,
        -0.9997870922088623,
        -0.9984976053237915
      ],
      "type": "VEC3"
    },
    {
      "bufferView": 3,
      "byteOffset": 30128,
      "componentType": 5126,
      "count": 3660,
      "max": [
        0.99989700317382812,
        0.99988508224487305,
        0.99998539686203003,
        1
      ],
      "min": [
        -0.99975413084030151,
        -0.99960654973983765,
        -0.99995750188827515,
        -1
      ],
      "type": "VEC4"
    },
    {
      "bufferView": 1,
      "byteOffset": 15064,
      "componentType": 5126,
      "count": 3660,
      "max": [
        0.59972202777862549,
        0.9943079948425293
      ],
      "min": [
        0.0014880000380799174,
        0.002020000945776701
      ],
      "type": "VEC2"
    },
    {
      "bufferView": 0,
      "byteOffset": 27180,
      "componentType": 5125,
      "count": 18330,
      "max": [
        3659
      ],
      "min": [
        0
      ],
      "type": "SCALAR"
    },
    {
      "bufferView": 2,
      "byteOffset": 133032,
      "componentType": 5126,
      "count": 2701,
      "max": [
        0.19013109803199768,
        0.37140271067619324,
        1.4236090183258057
      ],
      "min": [
        -0.20355109870433807,
        -0.44398000836372375,
        0.87586557865142822
      ],
      "type": "VEC3"
    },
    {
      "bufferView": 2,
      "byteOffset": 165444,
      "componentType": 5126,
      "count": 2701,
      "max": [
        0.99963110685348511,
        0.99797505140304565,
        0.9986426830291748
      ],
      "min": [
        -0.9982636570930481,
        -0.99615335464477539,
        -0.99520266056060791
      ],
      "type": "VEC3"
    },
    {
      "bufferView": 3,
      "byteOffset": 88688,
      "componentType": 5126,
      "count": 2701,
      "max": [
        0.99966859817504883,
        0.99937361478805542,
        0.99940001964569092,
        1
      ],
      "min": [
        -0.99979877471923828,
        -0.99977928400039673,
        -0.98839354515075684,
        -1
      ],
      "type": "VEC4"
    },
    {
      "bufferView": 1,
      "byteOffset": 44344,
      "componentType": 5126,
      "count": 2701,
      "max": [
        0.98290002346038818,
        0.99849802255630493
      ],
      "min": [
        0.0036989999935030937,
        0.0016130210133269429
      ],
      "type": "VEC2"
    },
    {
      "bufferView": 0,
      "byteOffset": 100500,
      "componentType": 5125,
      "count": 8967,
      "max": [
        2700
      ],
      "min": [
        0
      ],
      "type": "SCALAR"
    },
    {
      "bufferView": 2,
      "byteOffset": 197856,
      "componentType": 5126,
      "count": 1770,
      "max": [
        0.16696649789810181,
        0.35323360562324524,
        1.6916630268096924
      ],
      "min": [
        -0.17868649959564209,
        -0.43867018818855286,
        0.81130301952362061
      ],
      "type": "VEC3"
    },
    {
      "bufferView": 2,
      "byteOffset": 219096,
      "componentType": 5126,
      "count": 1770,
      "max": [
        0.99830895662307739,
        0.99964755773544312,
        0.91048610210418701
      ],
      "min": [
        -0.99986368417739868,
        -0.99961906671524048,
        -0.99143242835998535
      ],
      "type": "VEC3"
    },
    {
      "bufferView": 3,
      "byteOffset": 131904,
      "componentType": 5126,
      "count": 1770,
      "max": [
        0.99988889694213867,
        0.99929541349411011,
        0.99759584665298462,
        1
      ],
      "min": [
        -0.99944734573364258,
        -0.99945300817489624,
        -0.9965088963508606,
        -1
      ],
      "type": "VEC4"
    },
    {
      "bufferView": 1,
      "byteOffset": 65952,
      "componentType": 5126,
      "count": 1770,
      "max": [
        0.99741202592849731,
        0.99711698293685913
      ],
      "min": [
        0.50496202707290649,
        0.004105985164642334
      ],
      "type": "VEC2"
    },
    {
      "bufferView": 0,
      "byteOffset": 136368,
      "componentType": 5125,
      "count": 8670,
      "max": [
        1769
      ],
      "min": [
        0
      ],
      "type": "SCALAR"
    },
    {
      "bufferView": 2,
      "byteOffset": 240336,
      "componentType": 5126,
      "count": 498,
      "max": [
        0.21454940736293793,
        0.25134289264678955,
        1.2335400581359863
      ],
      "min": [
        -0.12882809340953827,
        -0.23912440240383148,
        1.1159549951553345
      ],
      "type": "VEC3"
    },
    {
      "bufferView": 2,
      "byteOffset": 246312,
      "componentType": 5126,
      "count": 498,
      "max": [
        0.99254459142684937,
        0.98714262247085571,
        0.99984490871429443
      ],
      "min": [
        -0.99460673332214355,
        -0.98650860786437988,
        -0.99477899074554443
      ],
      "type": "VEC3"
    },
    {
      "bufferView": 3,
      "byteOffset": 160224,
      "componentType": 5126,
      "count": 498,
      "max": [
        0.98026913404464722,
        0.99982714653015137,
        0.79193520545959473,
        1
      ],
      "min": [
        -0.99017614126205444,
        -0.9999956488609314,
        -0.82015061378479004,
        -1
      ],
      "type": "VEC4"
    },
    {
      "bufferView": 1,
      "byteOffset": 80112,
      "componentType": 5126,
      "count": 498,
      "max": [
        0.6219249963760376,
        0.65267699956893921
      ],
      "min": [
        0.025054000318050385,
        0.23526300489902496
      ],
      "type": "VEC2"
    },
    {
      "bufferView": 0,
      "byteOffset": 171048,
      "componentType": 5125,
      "count": 2286,
      "max": [
        497
      ],
      "min": [
        0
      ],
      "type": "SCALAR"
    },
    {
      "bufferView": 2,
      "byteOffset": 252288,
      "componentType": 5126,
      "count": 2787,
      "max": [
        0.21460850536823273,
        0.2775036096572876,
        1.1411529779434204
      ],
      "min": [
        -0.32480511069297791,
        -0.27068141102790833,
        -0.0028248629532754421
      ],
      "type": "VEC3"
    },
    {
      "bufferView": 2,
      "byteOffset": 285732,
      "componentType": 5126,
      "count": 2787,
      "max": [
        0.99979472160339355,
        0.99976569414138794,
        0.99964290857315063
      ],
      "min": [
        -0.9999995231628418,
        -0.99990719556808472,
        -0.99995797872543335
      ],
      "type": "VEC3"
    },
    {
      "bufferView": 3,
      "byteOffset": 168192,
      "componentType": 5126,
      "count": 2787,
      "max": [
        0.99999576807022095,
        0.99999707937240601,
        0.99919861555099487,
        1
      ],
      "min": [
        -0.9999847412109375,
        -0.99991220235824585,
        -0.98256170749664307,
        -1
      ],
      "type": "VEC4"
    },
    {
      "bufferView": 1,
      "byteOffset": 84096,
      "componentType": 5126,
      "count": 2787,
      "max": [
        0.99880301952362061,
        0.82535701990127563
      ],
      "min": [
        0.0028949999250471592,
        0.0020880100782960653
      ],
      "type": "VEC2"
    },
    {
      "bufferView": 0,
      "byteOffset": 180192,
      "componentType": 5125,
      "count": 10452,
      "max": [
        2786
      ],
      "min": [
        0
      ],
      "type": "SCALAR"
    }
  ],
  "asset": {
    "extras": {
      "author": "judgmentfist (https://sketchfab.com/judgmentfist)",
      "license": "CC-BY-4.0 (http://creativecommons.org/licenses/by/4.0/)",
      "source": "https://sketchfab.com/models/ebf3e47feaa246cc979b6c3ca00b0c88",
      "title": "Revised Cyrax Human MK9"
    },
    "generator": "Sketchfab-3.19.7",
    "version": "2.0"
  },
  "bufferViews": [
    {
      "buffer": 0,
      "byteLength": 222000,
      "byteOffset": 0,
      "name": "floatBufferViews",
      "target": 34963
    },
    {
      "buffer": 0,
      "byteLength": 106392,
      "byteOffset": 222000,
      "byteStride": 8,
      "name": "floatBufferViews",
      "target": 34962
    },
    {
      "buffer": 0,
      "byteLength": 319176,
      "byteOffset": 328392,
      "byteStride": 12,
      "name": "floatBufferViews",
      "target": 34962
    },
    {
      "buffer": 0,
      "byteLength": 212784,
      "byteOffset": 647568,
      "byteStride": 16,
      "name": "floatBufferViews",
      "target": 34962
    }
  ],
  "buffers": [
    {
      "byteLength": 860352,
      "uri": "scene.bin"
    }
  ],
  "images": [
    {
      "uri": "textures/Model001_Material001_baseColor.png"
    },
    {
      "uri": "textures/Model001_Material001_normal.png"
    },
    {
      "uri": "textures/Model001_Material006_baseColor.png"
    },
    {
      "uri": "textures/Model001_Material006_normal.png"
    },
    {
      "uri": "textures/Model001_Material005_baseColor.png"
    },
    {
      "uri": "textures/Model001_Material005_normal.png"
    },
    {
      "uri": "textures/Model001_Material004_baseColor.png"
    },
    {
      "uri": "textures/Model001_Material004_normal.png"
    },
    {
      "uri": "textures/Model001_Material003_baseColor.png"
    },
    {
      "uri": "textures/Model001_Material003_normal.png"
    },
    {
      "uri": "textures/Model001_Material002_baseColor.png"
    },
    {
      "uri": "textures/Model001_Material002_normal.png"
    }
  ],
  "materials": [
    {
      "doubleSided": true,
      "emissiveFactor": [
        0,
        0,
        0
      ],
      "name": "Model001_Material001",
      "normalTexture": {
        "index": 1,
        "scale": 1,
        "texCoord": 0
      },
      "pbrMetallicRoughness": {
        "baseColorFactor": [
          1,
          1,
          1,
          1
        ],
        "baseColorTexture": {
          "index": 0,
          "texCoord": 0
        },
        "metallicFactor": 0,
        "roughnessFactor": 0.59999999999999998
      }
    },
    {
      "doubleSided": true,
      "emissiveFactor": [
        0,
        0,
        0
      ],
      "name": "Model001_Material002",
      "normalTexture": {
        "index": 11,
        "scale": 1,
        "texCoord": 0
      },
      "pbrMetallicRoughness": {
        "baseColorFactor": [
          1,
          1,
          1,
          1
        ],
        "baseColorTexture": {
          "index": 10,
          "texCoord": 0
        },
        "metallicFactor": 0,
        "roughnessFactor": 0.59999999999999998
      }
    },
    {
      "doubleSided": true,
      "emissiveFactor": [
        0,
        0,
        0
      ],
      "name": "Model001_Material003",
      "normalTexture": {
        "index": 9,
        "scale": 1,
        "texCoord": 0
      },
      "pbrMetallicRoughness": {
        "baseColorFactor": [
          1,
          1,
          1,
          1
        ],
        "baseColorTexture": {
          "index": 8,
          "texCoord": 0
        },
        "metallicFactor": 0,
        "roughnessFactor": 0.59999999999999998
      }
    },
    {
      "doubleSided": true,
      "emissiveFactor": [
        0,
        0,
        0
      ],
      "name": "Model001_Material004",
      "normalTexture": {
        "index": 7,
        "scale": 1,
        "texCoord": 0
      },
      "pbrMetallicRoughness": {
        "baseColorFactor": [
          1,
          1,
          1,
          1
        ],
        "baseColorTexture": {
          "index": 6,
          "texCoord": 0
        },
        "metallicFactor": 0,
        "roughnessFactor": 0.59999999999999998
      }
    },
    {
      "alphaMode": "BLEND",
      "doubleSided": true,
      "emissiveFactor": [
        0,
        0,
        0
      ],
      "name": "Model001_Material005",
      "normalTexture": {
        "index": 5,
        "scale": 1,
        "texCoord": 0
      },
      "pbrMetallicRoughness": {
        "baseColorFactor": [
          1,
          1,
          1,
          0.72122713409999994
        ],
        "baseColorTexture": {
          "index": 4,
          "texCoord": 0
        },
        "metallicFactor": 0,
        "roughnessFactor": 0.59999999999999998
      }
    },
    {
      "doubleSided": true,
      "emissiveFactor": [
        0,
        0,
        0
      ],
      "name": "Model001_Material006",
      "normalTexture": {
        "index": 3,
        "scale": 1,
        "texCoord": 0
      },
      "pbrMetallicRoughness": {
        "baseColorFactor": [
          1,
          1,
          1,
          1
        ],
        "baseColorTexture": {
          "index": 2,
          "texCoord": 0
        },
        "metallicFactor": 0,
        "roughnessFactor": 0.59999999999999998
      }
    }
  ],
  "meshes": [
    {
      "primitives": [
        {
          "attributes": {
            "NORMAL": 1,
            "POSITION": 0,
            "TANGENT": 2,
            "TEXCOORD_0": 3
          },
          "indices": 4,
          "material": 0,
          "mode": 4
        }
      ]
    },
    {
      "primitives": [
        {
          "attributes": {
            "NORMAL": 6,
            "POSITION": 5,
            "TANGENT": 7,
            "TEXCOORD_0": 8
          },
          "indices": 9,
          "material": 1,
          "mode": 4
        }
      ]
    },
    {
      "primitives": [
        {
          "attributes": {
            "NORMAL": 11,
            "POSITION": 10,
            "TANGENT": 12,
            "TEXCOORD_0": 13
          },
          "indices": 14,
          "material": 2,
          "mode": 4
        }
      ]
    },
    {
      "primitives": [
        {
          "attributes": {
            "NORMAL": 16,
            "POSITION": 15,
            "TANGENT": 17,
            "TEXCOORD_0": 18
          },
          "indices": 19,
          "material": 3,
          "mode": 4
        }
      ]
    },
    {
      "primitives": [
        {
          "attributes": {
            "NORMAL": 21,
            "POSITION": 20,
            "TANGENT": 22,
            "TEXCOORD_0": 23
          },
          "indices": 24,
          "material": 4,
          "mode": 4
        }
      ]
    },
    {
      "primitives": [
        {
          "attributes": {
            "NORMAL": 26,
            "POSITION": 25,
            "TANGENT": 27,
            "TEXCOORD_0": 28
          },
          "indices": 29,
          "material": 5,
          "mode": 4
        }
      ]
    }
  ],
  "nodes": [
    {
      "children": [
        1
      ],
      "name": "RootNode (gltf orientation matrix)",
      "rotation": [
        -0.70710678118654746,
        -0,
        -0,
        0.70710678118654757
      ]
    },
    {
      "children": [
        2
      ],
      "name": "RootNode (model correction matrix)"
    },
    {
      "children": [
        3,
        4,
        5,
        6,
        7,
        8
      ],
      "name": "cyrax.obj.cleaner.materialmerger.gles"
    },
    {
      "mesh": 0,
      "name": ""
    },
    {
      "mesh": 1,
      "name": ""
    },
    {
      "mesh": 2,
      "name": ""
    },
    {
      "mesh": 3,
      "name": ""
    },
    {
      "mesh": 4,
      "name": ""
    },
    {
      "mesh": 5,
      "name": ""
    }
  ],
  "samplers": [
    {
      "magFilter": 9729,
      "minFilter": 9987,
      "wrapS": 10497,
      "wrapT": 10497
    }
  ],
  "scene": 0,
  "scenes": [
    {
      "name": "OSG_Scene",
      "nodes": [
        0
      ]
    }
  ],
  "textures": [
    {
      "sampler": 0,
      "source": 0
    },
    {
      "sampler": 0,
      "source": 1
    },
    {
      "sampler": 0,
      "source": 2
    },
    {
      "sampler": 0,
      "source": 3
    },
    {
      "sampler": 0,
      "source": 4
    },
    {
      "sampler": 0,
      "source": 5
    },
    {
      "sampler": 0,
      "source": 6
    },
    {
      "sampler": 0,
      "source": 7
    },
    {
      "sampler": 0,
      "source": 8
    },
    {
      "sampler": 0,
      "source": 9
    },
    {
      "sampler": 0,
      "source": 10
    },
    {
      "sampler": 0,
      "source": 11
    }
  ]
}

