<svg width="494" height="494" viewBox="0 0 494 494" fill="none" xmlns="http://www.w3.org/2000/svg">
<rect x="7" y="7" width="480" height="480" rx="83" stroke="url(#paint0_linear)" stroke-width="14"/>
<path d="M246.027 145.436C248.971 145.436 251.358 143.049 251.358 140.106V116.331C251.358 113.387 248.971 111 246.027 111C243.083 111 240.697 113.387 240.697 116.331V140.106C240.697 143.049 243.084 145.436 246.027 145.436Z" fill="url(#paint1_linear)"/>
<path d="M376.326 294.129L366.909 284.739C363.559 281.393 359.095 279.55 354.337 279.55C351.295 279.55 348.375 280.307 345.788 281.725L328.042 264.001L328.907 263.138C336.106 255.924 336.103 244.203 328.906 237.014C326.334 234.437 323.125 232.719 319.627 231.996C320.109 230.334 320.362 228.592 320.362 226.81C320.362 221.859 318.439 217.216 314.957 213.748C312.385 211.172 309.176 209.454 305.678 208.731C306.16 207.068 306.413 205.327 306.413 203.544C306.413 198.592 304.49 193.95 301.002 190.477C298.368 187.847 295.131 186.181 291.731 185.473C293.55 179.202 291.996 172.147 287.063 167.206C282.956 163.117 277.384 161.36 272.015 161.929L236.851 155.273C231.488 154.256 224.791 153.583 220.563 157.439C220.297 157.683 220.025 157.963 219.757 158.274C213.202 155.885 205.557 157.308 200.308 162.551C196.825 166.029 194.907 170.67 194.907 175.619C194.907 177.401 195.16 179.142 195.641 180.805C192.146 181.528 188.942 183.244 186.378 185.812C182.889 189.287 180.965 193.922 180.961 198.866C180.96 200.652 181.213 202.399 181.697 204.066C178.201 204.787 174.994 206.5 172.423 209.068C168.934 212.554 167.012 217.197 167.012 222.143C167.012 225.932 168.143 229.541 170.239 232.59C167.593 233.487 165.169 234.981 163.139 237.008C155.935 244.203 155.932 255.925 163.144 263.149L164.005 264.006L146.257 281.721C139.662 278.616 131.536 279.779 126.093 285.215L116.67 294.611C113.319 297.958 111.474 302.424 111.473 307.183C111.473 311.944 113.319 316.41 116.67 319.757L128.43 331.503C130.512 333.583 133.888 333.581 135.968 331.498C138.049 329.416 138.046 326.04 135.964 323.96L124.204 312.215C122.869 310.882 122.134 309.095 122.134 307.184C122.134 305.274 122.869 303.487 124.201 302.157L133.624 292.761C135.979 290.409 139.582 290.059 142.318 291.695C142.511 291.984 142.734 292.259 142.989 292.515C143.446 292.973 143.967 293.324 144.521 293.581L198.558 347.539C198.815 348.098 199.168 348.625 199.628 349.085C200.075 349.534 200.586 349.88 201.128 350.135C202.271 351.427 202.902 353.078 202.902 354.838C202.902 356.749 202.167 358.535 200.832 359.869L191.419 369.271C188.637 372.04 184.113 372.04 181.34 369.28L169.58 357.519C167.499 355.437 164.124 355.437 162.042 357.519C159.96 359.601 159.96 362.976 162.042 365.057L173.81 376.826C177.274 380.276 181.823 382 186.373 382C190.925 382 195.479 380.273 198.947 376.82L208.367 367.412C211.718 364.064 213.564 359.599 213.564 354.838C213.564 351.441 212.619 348.196 210.862 345.398L230.836 325.449C230.857 325.427 230.878 325.406 230.9 325.384C233.187 323.02 239.556 323.462 245.716 323.89C250.092 324.194 254.971 324.532 259.738 323.983L281.61 345.83C280.193 348.413 279.437 351.329 279.437 354.367C279.437 359.122 281.283 363.585 284.634 366.933L294.054 376.341C297.403 379.687 301.868 381.53 306.625 381.53C311.382 381.53 315.847 379.687 319.197 376.341L376.33 319.277C379.681 315.93 381.527 311.465 381.527 306.704C381.526 301.945 379.681 297.479 376.326 294.129V294.129ZM234.866 165.748L257.989 170.125L244.149 183.96C242.008 182.931 239.073 181.012 235.854 177.932C231.448 173.717 228.296 168.85 228.009 165.815C228.008 165.813 228.008 165.811 228.008 165.81C228.008 165.809 228.008 165.809 228.008 165.808C227.987 165.59 227.982 165.416 227.985 165.283C228.682 165.114 230.533 164.926 234.866 165.748ZM207.841 170.094C210.542 167.396 214.737 167.085 217.788 169.151C219.517 176.402 225.702 182.973 228.485 185.635C230.547 187.608 237.164 193.524 243.842 195.15C244.746 196.446 245.238 197.99 245.238 199.619C245.238 201.717 244.43 203.679 242.959 205.149C241.493 206.618 239.528 207.427 237.425 207.427C235.322 207.427 233.357 206.618 231.883 205.142L231.883 205.141L231.88 205.139L207.841 181.143C206.375 179.679 205.568 177.717 205.568 175.619C205.568 173.52 206.376 171.558 207.841 170.094V170.094ZM193.912 193.355C195.379 191.886 197.342 191.077 199.441 191.077C201.543 191.077 203.513 191.888 204.989 193.362L224.346 212.681C227.394 215.734 227.394 220.702 224.357 223.745C222.882 225.213 220.91 226.022 218.804 226.022C216.698 226.022 214.726 225.213 213.257 223.751L213.257 223.75L198.572 209.068C198.549 209.045 198.524 209.024 198.501 209.001L193.906 204.409C192.432 202.936 191.621 200.971 191.622 198.873C191.625 196.783 192.433 194.828 193.912 193.355V193.355ZM179.957 216.611C181.424 215.146 183.392 214.338 185.497 214.338C187.586 214.338 189.536 215.134 190.997 216.574L205.728 231.298C207.196 232.761 208.006 234.721 208.006 236.817C208.006 238.912 207.196 240.872 205.722 242.341C204.255 243.806 202.289 244.613 200.188 244.613C198.083 244.613 196.111 243.804 194.642 242.341L189.301 237.007C189.3 237.006 189.299 237.005 189.298 237.003L179.957 227.674C178.485 226.203 177.674 224.238 177.674 222.142C177.674 220.047 178.485 218.082 179.957 216.611V216.611ZM170.673 244.551C172.147 243.078 174.117 242.267 176.22 242.267C178.322 242.267 180.292 243.078 181.765 244.549L187.113 249.89C188.582 251.353 189.391 253.313 189.391 255.409C189.391 257.505 188.582 259.465 187.102 260.939C185.635 262.408 183.67 263.217 181.567 263.217C179.465 263.217 177.499 262.409 176.022 260.929L175.352 260.262C175.343 260.253 175.337 260.243 175.328 260.235C175.318 260.225 175.307 260.217 175.297 260.207L170.678 255.606C167.63 252.552 167.627 247.593 170.673 244.551ZM279.303 305.133C277.222 303.05 273.847 303.048 271.764 305.128L267.022 309.865C262.515 314.371 254.35 313.804 246.453 313.256C237.878 312.66 229.011 312.045 223.273 317.936L203.639 337.547L154.539 288.519L171.915 271.175C174.787 272.935 178.101 273.879 181.568 273.879C186.522 273.879 191.167 271.959 194.637 268.483C198.13 265.004 200.054 260.362 200.054 255.41C200.054 255.364 200.05 255.318 200.05 255.272C200.096 255.273 200.143 255.275 200.189 255.275C205.135 255.275 209.777 253.361 213.251 249.891C216.744 246.412 218.668 241.769 218.668 236.818C218.668 236.772 218.665 236.726 218.665 236.68C218.711 236.68 218.758 236.683 218.805 236.683C223.75 236.683 228.394 234.771 231.892 231.288C235.523 227.651 237.319 222.863 237.284 218.085C237.332 218.085 237.38 218.088 237.427 218.088C242.381 218.087 247.026 216.168 250.5 212.687C253.983 209.209 255.901 204.568 255.901 199.619C255.901 196.158 254.96 192.849 253.205 189.983L268.435 174.76C269.569 173.63 270.969 172.92 272.435 172.628C272.594 172.611 272.751 172.585 272.906 172.555C275.259 172.23 277.731 172.956 279.53 174.749C282.578 177.802 282.578 182.77 279.541 185.813L274.903 190.432C274.888 190.447 274.871 190.461 274.856 190.476L269.514 195.809C267.43 197.889 267.428 201.265 269.509 203.348C271.59 205.431 274.965 205.433 277.047 203.352L281.704 198.702C281.705 198.701 281.706 198.7 281.707 198.699L282.411 197.997C285.468 194.969 290.42 194.975 293.473 198.024C294.943 199.487 295.752 201.447 295.752 203.543C295.752 205.639 294.943 207.599 293.462 209.074L288.797 213.748C288.797 213.748 288.796 213.749 288.796 213.75L283.454 219.07C281.368 221.147 281.361 224.523 283.439 226.608C285.516 228.694 288.891 228.7 290.977 226.623L296.343 221.279C297.809 219.81 299.775 219.001 301.877 219.001C303.98 219.001 305.946 219.81 307.423 221.29C308.892 222.753 309.701 224.713 309.701 226.809C309.701 228.905 308.892 230.865 307.415 232.336L298.115 241.64C296.034 243.722 296.034 247.097 298.116 249.178C299.157 250.218 300.521 250.738 301.885 250.738C303.249 250.738 304.614 250.217 305.654 249.176L310.212 244.617C310.238 244.592 310.266 244.57 310.292 244.544C311.759 243.075 313.724 242.266 315.826 242.266C317.929 242.266 319.894 243.075 321.366 244.55C324.411 247.592 324.409 252.551 321.366 255.599L316.732 260.227C316.731 260.229 316.729 260.231 316.727 260.232C316.725 260.234 316.724 260.236 316.722 260.238L309.367 267.584C307.284 269.664 307.282 273.04 309.362 275.122C310.404 276.165 311.769 276.686 313.134 276.686C314.497 276.686 315.861 276.166 316.901 275.127L320.499 271.534L337.742 288.757L288.647 337.792L271.056 320.222C272.283 319.434 273.456 318.506 274.557 317.405L279.297 312.671C281.381 310.591 281.383 307.216 279.303 305.133V305.133ZM368.795 311.734L311.662 368.798C310.326 370.133 308.537 370.868 306.625 370.868C304.713 370.868 302.924 370.133 301.587 368.797L292.167 359.389C290.832 358.056 290.097 356.273 290.097 354.367C290.097 352.461 290.832 350.677 292.167 349.344L349.3 292.281C350.637 290.945 352.425 290.21 354.338 290.21C356.25 290.21 358.039 290.945 359.379 292.284L368.796 301.674C370.13 303.007 370.866 304.793 370.866 306.704C370.865 308.615 370.13 310.402 368.795 311.734V311.734Z" fill="url(#paint2_linear)"/>
<path d="M175.245 140.942C176.286 141.981 177.648 142.5 179.01 142.5C180.376 142.5 181.742 141.978 182.783 140.934C184.863 138.851 184.86 135.476 182.776 133.396L163.352 114.011C161.268 111.931 157.893 111.934 155.813 114.018C153.734 116.102 153.737 119.477 155.821 121.556L175.245 140.942Z" fill="url(#paint3_linear)"/>
<path d="M313.044 142.5C314.407 142.5 315.771 141.98 316.811 140.941L336.221 121.555C338.303 119.475 338.306 116.099 336.225 114.017C334.145 111.934 330.77 111.932 328.687 114.012L309.277 133.398C307.195 135.478 307.192 138.854 309.273 140.937C310.314 141.979 311.679 142.5 313.044 142.5Z" fill="url(#paint4_linear)"/>
<path d="M144.25 340.294C142.186 342.393 142.215 345.768 144.314 347.832L144.33 347.847C145.366 348.865 146.711 349.372 148.055 349.372C149.435 349.372 150.815 348.838 151.86 347.775C153.924 345.675 153.887 342.293 151.788 340.229C149.689 338.165 146.315 338.194 144.25 340.294V340.294Z" fill="url(#paint5_linear)"/>
<path d="M292.34 297.454C293.151 297.454 293.974 297.269 294.746 296.88C297.374 295.554 298.43 292.349 297.105 289.72C295.779 287.092 292.573 286.035 289.945 287.361L289.915 287.376C287.287 288.702 286.246 291.9 287.571 294.528C288.507 296.385 290.389 297.454 292.34 297.454V297.454Z" fill="url(#paint6_linear)"/>
<defs>
<linearGradient id="paint0_linear" x1="247" y1="0" x2="247" y2="494" gradientUnits="userSpaceOnUse">
<stop stop-color="#272B53"/>
<stop offset="1" stop-color="#A5167E"/>
</linearGradient>
<linearGradient id="paint1_linear" x1="246.027" y1="111" x2="246.027" y2="145.436" gradientUnits="userSpaceOnUse">
<stop offset="0.239583" stop-color="#404266"/>
<stop offset="1" stop-color="#A5167E"/>
</linearGradient>
<linearGradient id="paint2_linear" x1="246.5" y1="154.484" x2="246.5" y2="382" gradientUnits="userSpaceOnUse">
<stop offset="0.239583" stop-color="#404266"/>
<stop offset="1" stop-color="#A5167E"/>
</linearGradient>
<linearGradient id="paint3_linear" x1="169.298" y1="112.453" x2="169.298" y2="142.5" gradientUnits="userSpaceOnUse">
<stop offset="0.239583" stop-color="#404266"/>
<stop offset="1" stop-color="#A5167E"/>
</linearGradient>
<linearGradient id="paint4_linear" x1="322.749" y1="112.453" x2="322.749" y2="142.5" gradientUnits="userSpaceOnUse">
<stop offset="0.239583" stop-color="#404266"/>
<stop offset="1" stop-color="#A5167E"/>
</linearGradient>
<linearGradient id="paint5_linear" x1="148.053" y1="338.7" x2="148.053" y2="349.372" gradientUnits="userSpaceOnUse">
<stop offset="0.239583" stop-color="#404266"/>
<stop offset="1" stop-color="#A5167E"/>
</linearGradient>
<linearGradient id="paint6_linear" x1="292.337" y1="286.789" x2="292.337" y2="297.454" gradientUnits="userSpaceOnUse">
<stop offset="0.239583" stop-color="#404266"/>
<stop offset="1" stop-color="#A5167E"/>
</linearGradient>
</defs>
</svg>
