<svg width="494" height="494" viewBox="0 0 494 494" fill="none" xmlns="http://www.w3.org/2000/svg">
<rect x="7" y="7" width="480" height="480" rx="83" stroke="url(#paint0_linear)" stroke-width="14"/>
<g clip-path="url(#clip0)">
<path d="M181.951 296.193H178.82C185.423 290.218 189.579 281.586 189.579 272.001C189.579 254.009 174.941 239.372 156.949 239.372C138.957 239.372 124.32 254.009 124.32 272.001C124.32 281.586 128.475 290.218 135.078 296.193H131.948C117.088 296.193 105 308.282 105 323.141V348.142C105 350.472 106.888 352.361 109.219 352.361H204.679C207.009 352.361 208.898 350.472 208.898 348.142V323.141C208.898 308.282 196.81 296.193 181.951 296.193ZM132.757 272.001C132.757 258.662 143.609 247.809 156.949 247.809C170.289 247.809 181.141 258.662 181.141 272.001C181.141 285.34 170.289 296.193 156.949 296.193C143.609 296.193 132.757 285.341 132.757 272.001V272.001ZM200.46 343.924H185.032V336.778C185.032 334.448 183.144 332.559 180.814 332.559C178.483 332.559 176.595 334.448 176.595 336.778V343.924H137.303V336.778C137.303 334.448 135.414 332.559 133.084 332.559C130.753 332.559 128.865 334.448 128.865 336.778V343.924H113.438V323.141C113.438 312.934 121.741 304.631 131.947 304.631H181.951C192.157 304.631 200.46 312.934 200.46 323.141V343.924Z" fill="url(#paint1_linear)"/>
<path d="M366.051 331.426H362.919C369.524 325.451 373.68 316.817 373.68 307.231C373.68 289.239 359.043 274.601 341.051 274.601C323.059 274.601 308.421 289.239 308.421 307.231C308.421 316.817 312.578 325.45 319.183 331.426H316.049C301.189 331.426 289.1 343.513 289.1 358.369V383.372C289.1 385.702 290.988 387.591 293.319 387.591H331.209C333.539 387.591 335.428 385.702 335.428 383.372C335.428 381.043 333.539 379.154 331.209 379.154H321.405V372.008C321.405 369.678 319.517 367.789 317.186 367.789C314.856 367.789 312.968 369.678 312.968 372.008V379.154H297.538V358.369C297.538 348.165 305.843 339.863 316.05 339.863H366.051C376.258 339.863 384.563 348.165 384.563 358.369V379.154H369.135V372.008C369.135 369.678 367.247 367.789 364.916 367.789C362.586 367.789 360.697 369.678 360.697 372.008V379.154H350.897C348.566 379.154 346.678 381.043 346.678 383.372C346.678 385.702 348.566 387.591 350.897 387.591H388.781C391.112 387.591 393 385.702 393 383.372V358.369C393 343.513 380.911 331.426 366.051 331.426V331.426ZM316.859 307.231C316.859 293.892 327.712 283.039 341.051 283.039C354.391 283.039 365.243 293.891 365.243 307.231C365.243 320.57 354.391 331.423 341.051 331.423C327.712 331.423 316.859 320.57 316.859 307.231Z" fill="url(#paint2_linear)"/>
<path d="M377.419 141.638H327.863C325.532 141.638 323.644 143.527 323.644 145.857C323.644 148.187 325.532 150.076 327.863 150.076H377.419C381.358 150.076 384.562 153.28 384.562 157.219V248.136C384.562 252.075 381.358 255.28 377.419 255.28H296.728C294.398 255.28 292.509 257.169 292.509 259.499V272.042L276.987 256.516C276.196 255.724 275.123 255.28 274.003 255.28H241.046C237.104 255.28 233.897 252.075 233.897 248.136V157.219C233.897 153.28 237.104 150.076 241.046 150.076H308.175C310.505 150.076 312.394 148.187 312.394 145.857C312.394 143.527 310.505 141.638 308.175 141.638H272.541V121.99C272.541 113.399 265.548 106.409 256.954 106.409H120.581C111.99 106.409 105 113.398 105 121.99V212.907C105 221.498 111.99 228.488 120.581 228.488H144.246C146.576 228.488 148.464 226.599 148.464 224.269C148.464 221.939 146.576 220.051 144.246 220.051H120.581C116.642 220.051 113.438 216.846 113.438 212.907V121.99C113.438 118.051 116.642 114.846 120.581 114.846H256.954C260.896 114.846 264.103 118.051 264.103 121.99V141.638H241.046C232.452 141.638 225.459 148.628 225.459 157.219V220.051H223.996C222.877 220.051 221.804 220.496 221.013 221.286L205.491 236.813V224.269C205.491 221.939 203.602 220.051 201.272 220.051H163.933C161.603 220.051 159.714 221.939 159.714 224.269C159.714 226.599 161.603 228.488 163.933 228.488H197.054V247C197.054 248.707 198.081 250.245 199.658 250.897C200.181 251.113 200.728 251.219 201.271 251.219C202.369 251.219 203.449 250.79 204.256 249.983L225.46 228.773V248.136C225.46 256.728 232.452 263.717 241.047 263.717H272.255L293.745 285.212C294.552 286.019 295.631 286.448 296.729 286.448C297.273 286.448 297.821 286.342 298.343 286.126C299.919 285.473 300.947 283.935 300.947 282.229V263.717H377.419C386.01 263.717 393 256.727 393 248.136V157.219C393 148.628 386.01 141.638 377.419 141.638V141.638Z" fill="url(#paint3_linear)"/>
</g>
<defs>
<linearGradient id="paint0_linear" x1="247" y1="0" x2="247" y2="494" gradientUnits="userSpaceOnUse">
<stop stop-color="#272B53"/>
<stop offset="1" stop-color="#A5167E"/>
</linearGradient>
<linearGradient id="paint1_linear" x1="156.949" y1="239.372" x2="156.949" y2="352.361" gradientUnits="userSpaceOnUse">
<stop stop-color="#272B53"/>
<stop offset="1" stop-color="#A5167E"/>
</linearGradient>
<linearGradient id="paint2_linear" x1="341.05" y1="274.601" x2="341.05" y2="387.591" gradientUnits="userSpaceOnUse">
<stop stop-color="#272B53"/>
<stop offset="1" stop-color="#A5167E"/>
</linearGradient>
<linearGradient id="paint3_linear" x1="249" y1="106.409" x2="249" y2="286.448" gradientUnits="userSpaceOnUse">
<stop stop-color="#272B53"/>
<stop offset="1" stop-color="#A5167E"/>
</linearGradient>
<clipPath id="clip0">
<rect width="288" height="288" fill="white" transform="translate(105 103)"/>
</clipPath>
</defs>
</svg>
