<svg width="494" height="494" viewBox="0 0 494 494" fill="none" xmlns="http://www.w3.org/2000/svg">
<rect x="7" y="7" width="480" height="480" rx="83" stroke="url(#paint0_linear)" stroke-width="14"/>
<path d="M298.646 276.103C297.76 273.644 295.049 272.37 292.591 273.255C290.132 274.141 288.858 276.853 289.744 279.311C289.766 279.371 289.789 279.431 289.813 279.49C294.128 290.751 294.44 299.363 290.665 303.148C286.085 307.718 274.677 306.29 260.142 299.334C240.682 289.23 222.994 276.031 207.769 260.252C170.707 223.186 155.415 186.815 164.873 177.356C167.891 174.973 171.814 174.057 175.576 174.858C178.182 175.05 180.45 173.092 180.642 170.486C180.827 167.967 179.001 165.747 176.494 165.443C169.915 164.279 163.166 166.197 158.183 170.647C140.847 187.979 167.348 233.188 201.079 266.924C217.06 283.461 235.63 297.284 256.059 307.846C259.758 309.618 263.57 311.143 267.471 312.412L233.854 325.159C188.964 308.092 156.648 268.296 149.16 220.858C148.755 218.276 146.334 216.511 143.752 216.916C141.17 217.322 139.405 219.743 139.811 222.325C140.553 227.056 141.547 231.788 142.763 236.415C153.658 277.697 182.356 311.991 221.069 329.994L165.739 350.931C165.485 350.508 165.166 350.128 164.793 349.805C150.731 338.515 141.908 321.958 140.378 303.99L138.183 277.404C138.01 274.828 135.782 272.88 133.205 273.053C133.156 273.056 133.107 273.06 133.059 273.065C130.454 273.272 128.51 275.552 128.717 278.157C128.718 278.167 128.719 278.179 128.72 278.189L130.953 304.766C132.616 323.972 141.575 341.809 155.988 354.612L116.517 369.554L123.615 340.427C124.234 337.887 122.677 335.326 120.137 334.707C117.597 334.088 115.036 335.644 114.417 338.185L105.186 376.036C104.563 378.574 106.116 381.136 108.655 381.758C109.586 381.986 110.563 381.926 111.459 381.587L286.525 315.346C286.803 315.21 287.066 315.045 287.31 314.854C291.099 314.272 294.611 312.52 297.355 309.843C302.043 305.154 306.079 295.488 298.646 276.103Z" fill="url(#paint1_linear)"/>
<path d="M343.298 263.9C317.72 254.325 290.074 251.64 263.132 256.117L246.226 258.956C243.66 259.449 241.98 261.929 242.473 264.495C242.95 266.975 245.289 268.643 247.788 268.286L264.689 265.471C289.991 261.264 315.956 263.787 339.976 272.786C340.509 272.975 341.071 273.069 341.637 273.065C344.25 273.069 346.372 270.955 346.376 268.341C346.38 266.363 345.152 264.592 343.298 263.9Z" fill="url(#paint2_linear)"/>
<path d="M360.118 190.595C358.994 188.235 356.171 187.233 353.811 188.357L254.449 235.672C252.09 236.795 251.088 239.618 252.211 241.978C252.211 241.979 252.211 241.979 252.211 241.979C253.335 244.338 256.158 245.341 258.517 244.218C258.518 244.218 258.518 244.217 258.519 244.217L357.88 196.902C360.24 195.779 361.242 192.955 360.118 190.595Z" fill="url(#paint3_linear)"/>
<path d="M219.961 130.113C219.441 127.552 216.943 125.897 214.382 126.418C211.822 126.938 210.167 129.436 210.688 131.997C210.699 132.054 210.712 132.11 210.726 132.166C216.715 158.922 214.246 186.878 203.662 212.171L196.782 228.679C195.788 231.084 196.923 233.841 199.323 234.849C199.898 235.091 200.516 235.214 201.14 235.213C203.049 235.213 204.772 234.066 205.507 232.303L212.391 215.814C223.732 188.721 226.377 158.774 219.961 130.113Z" fill="url(#paint4_linear)"/>
<path d="M365.294 268.334C357.455 268.334 351.1 274.689 351.1 282.528C351.1 290.368 357.455 296.723 365.294 296.723C373.134 296.723 379.489 290.368 379.489 282.528C379.489 274.689 373.134 268.334 365.294 268.334ZM365.294 287.26C362.681 287.26 360.563 285.141 360.563 282.528C360.563 279.915 362.681 277.797 365.294 277.797C367.907 277.797 370.026 279.915 370.026 282.528C370.026 285.141 367.907 287.26 365.294 287.26Z" fill="url(#paint5_linear)"/>
<path d="M251.738 135.852C243.899 135.852 237.544 142.207 237.544 150.046C237.544 157.886 243.899 164.241 251.738 164.241C259.578 164.241 265.933 157.886 265.933 150.046C265.933 142.207 259.578 135.852 251.738 135.852ZM251.738 154.778C249.125 154.778 247.007 152.659 247.007 150.046C247.007 147.433 249.125 145.315 251.738 145.315C254.351 145.315 256.47 147.433 256.47 150.046C256.47 152.659 254.351 154.778 251.738 154.778Z" fill="url(#paint6_linear)"/>
<path d="M209.155 116.926C214.381 116.926 218.618 112.689 218.618 107.463C218.618 102.237 214.381 98 209.155 98C203.929 98 199.692 102.237 199.692 107.463C199.692 112.689 203.929 116.926 209.155 116.926Z" fill="url(#paint7_linear)"/>
<path d="M341.637 121.657C339.024 121.657 336.905 123.776 336.905 126.389V131.12C336.905 133.733 339.024 135.852 341.637 135.852C344.25 135.852 346.368 133.733 346.368 131.12V126.389C346.368 123.776 344.25 121.657 341.637 121.657Z" fill="url(#paint8_linear)"/>
<path d="M341.637 98C339.024 98 336.905 100.119 336.905 102.731V107.463C336.905 110.076 339.024 112.194 341.637 112.194C344.25 112.194 346.368 110.076 346.368 107.463V102.731C346.368 100.119 344.25 98 341.637 98Z" fill="url(#paint9_linear)"/>
<path d="M355.831 112.194H351.1C348.487 112.194 346.368 114.313 346.368 116.926C346.368 119.539 348.487 121.657 351.1 121.657H355.831C358.444 121.657 360.563 119.539 360.563 116.926C360.563 114.313 358.444 112.194 355.831 112.194Z" fill="url(#paint10_linear)"/>
<path d="M332.173 112.194H327.442C324.829 112.194 322.71 114.313 322.71 116.926C322.71 119.539 324.829 121.657 327.442 121.657H332.173C334.786 121.657 336.905 119.539 336.905 116.926C336.905 114.313 334.786 112.194 332.173 112.194Z" fill="url(#paint11_linear)"/>
<path d="M308.516 149.947H284.759C282.146 149.947 280.028 152.066 280.028 154.679V178.435C280.028 181.048 282.146 183.167 284.759 183.167H308.516C311.129 183.167 313.248 181.048 313.248 178.435V154.679C313.248 152.066 311.129 149.947 308.516 149.947ZM303.785 173.704H289.491V159.41H303.785V173.704Z" fill="url(#paint12_linear)"/>
<path d="M274.048 189.457C272.311 187.603 269.42 187.452 267.499 189.114L220.184 231.698C218.243 233.446 218.086 236.437 219.834 238.379C221.582 240.32 224.573 240.476 226.515 238.729L273.83 196.145C275.737 194.359 275.835 191.365 274.048 189.457Z" fill="url(#paint13_linear)"/>
<path d="M360.563 206.824C357.95 206.824 355.831 208.943 355.831 211.556V216.287C355.831 218.9 357.95 221.019 360.563 221.019C363.176 221.019 365.294 218.9 365.294 216.287V211.556C365.294 208.943 363.176 206.824 360.563 206.824Z" fill="url(#paint14_linear)"/>
<path d="M380.638 206.01L377.293 202.665C375.414 200.85 372.419 200.902 370.603 202.781C368.832 204.615 368.832 207.522 370.603 209.356L373.948 212.701C375.828 214.516 378.823 214.464 380.638 212.585C382.41 210.751 382.41 207.844 380.638 206.01Z" fill="url(#paint15_linear)"/>
<path d="M384.22 187.898H379.488C376.875 187.898 374.757 190.017 374.757 192.63C374.757 195.243 376.875 197.361 379.488 197.361H384.22C386.833 197.361 388.951 195.243 388.951 192.63C388.951 190.017 386.833 187.898 384.22 187.898Z" fill="url(#paint16_linear)"/>
<path d="M380.522 172.559C378.689 170.788 375.782 170.788 373.948 172.559L370.603 175.904C368.755 177.752 368.756 180.748 370.604 182.595C371.491 183.482 372.694 183.981 373.948 183.981C375.203 183.981 376.406 183.481 377.293 182.594L380.638 179.249C382.454 177.37 382.402 174.374 380.522 172.559Z" fill="url(#paint17_linear)"/>
<path d="M360.563 164.241C357.95 164.241 355.831 166.359 355.831 168.972V173.704C355.831 176.317 357.95 178.435 360.563 178.435C363.176 178.435 365.294 176.317 365.294 173.704V168.972C365.294 166.359 363.176 164.241 360.563 164.241Z" fill="url(#paint18_linear)"/>
<path d="M350.522 175.904L347.177 172.559C345.297 170.744 342.302 170.795 340.487 172.675C338.716 174.508 338.716 177.415 340.487 179.249L343.832 182.594C345.712 184.41 348.707 184.358 350.522 182.478C352.294 180.644 352.294 177.737 350.522 175.904Z" fill="url(#paint19_linear)"/>
<path d="M161.608 118.459C161.051 116.747 159.571 115.501 157.79 115.242L143.903 113.221L137.709 100.64C136.329 98.2963 133.31 97.515 130.966 98.8954C130.245 99.3195 129.645 99.9198 129.221 100.64L122.999 113.221L109.112 115.242C106.526 115.615 104.732 118.014 105.105 120.601C105.254 121.63 105.738 122.582 106.482 123.309L116.526 133.103L114.161 146.933C113.707 149.506 115.424 151.961 117.997 152.415C119.034 152.598 120.101 152.43 121.031 151.939L133.451 145.391L145.871 151.92C148.184 153.136 151.045 152.247 152.261 149.934C152.745 149.013 152.912 147.959 152.737 146.933L150.371 133.103L160.421 123.309C161.707 122.05 162.167 120.17 161.608 118.459ZM141.968 128.064C140.853 129.149 140.344 130.713 140.605 132.247L141.778 139.084L135.651 135.852C134.274 135.129 132.628 135.129 131.251 135.852L125.1 139.079L126.273 132.242C126.539 130.714 126.039 129.153 124.934 128.064L119.962 123.224L126.827 122.225C128.368 122.002 129.701 121.033 130.39 119.637L133.451 113.425L136.517 119.637C137.205 121.032 138.536 122 140.075 122.225L146.936 123.224L141.968 128.064Z" fill="url(#paint20_linear)"/>
<path d="M372.968 335.166H372.95L371 332.242C360.07 315.896 342.882 304.782 323.491 301.52C320.904 301.151 318.508 302.949 318.139 305.536C317.782 308.036 319.451 310.375 321.93 310.851C335.916 313.225 348.662 320.33 358.036 330.979C350.155 332.396 343.262 337.13 339.11 343.976C334.014 353.102 337.282 364.631 346.408 369.727C355.535 374.823 367.064 371.555 372.159 362.429C374.106 358.671 375.157 354.514 375.23 350.283C380.264 357.595 380.667 367.144 376.266 374.854C374.933 377.101 375.674 380.004 377.922 381.337C380.169 382.67 383.072 381.929 384.405 379.682C384.448 379.609 384.488 379.537 384.528 379.462C393.191 363.988 388.088 344.434 372.968 335.166ZM363.908 357.811C361.382 362.387 355.626 364.049 351.05 361.523C346.475 358.998 344.813 353.241 347.338 348.666C347.352 348.641 347.366 348.615 347.381 348.589C350.173 344.017 354.882 340.953 360.193 340.252C361.016 340.23 361.831 340.419 362.559 340.801C366.553 343.03 366.765 352.691 363.908 357.811Z" fill="url(#paint21_linear)"/>
<defs>
<linearGradient id="paint0_linear" x1="247" y1="0" x2="247" y2="494" gradientUnits="userSpaceOnUse">
<stop stop-color="#272B53"/>
<stop offset="1" stop-color="#A5167E"/>
</linearGradient>
<linearGradient id="paint1_linear" x1="203.901" y1="165.109" x2="203.901" y2="381.894" gradientUnits="userSpaceOnUse">
<stop stop-color="#272B53"/>
<stop offset="1" stop-color="#A5167E"/>
</linearGradient>
<linearGradient id="paint2_linear" x1="294.382" y1="254.01" x2="294.382" y2="273.065" gradientUnits="userSpaceOnUse">
<stop stop-color="#272B53"/>
<stop offset="1" stop-color="#A5167E"/>
</linearGradient>
<linearGradient id="paint3_linear" x1="306.165" y1="187.896" x2="306.165" y2="244.678" gradientUnits="userSpaceOnUse">
<stop stop-color="#272B53"/>
<stop offset="1" stop-color="#A5167E"/>
</linearGradient>
<linearGradient id="paint4_linear" x1="209.903" y1="126.322" x2="209.903" y2="235.213" gradientUnits="userSpaceOnUse">
<stop stop-color="#272B53"/>
<stop offset="1" stop-color="#A5167E"/>
</linearGradient>
<linearGradient id="paint5_linear" x1="365.294" y1="268.334" x2="365.294" y2="296.723" gradientUnits="userSpaceOnUse">
<stop stop-color="#272B53"/>
<stop offset="1" stop-color="#A5167E"/>
</linearGradient>
<linearGradient id="paint6_linear" x1="251.738" y1="135.852" x2="251.738" y2="164.241" gradientUnits="userSpaceOnUse">
<stop stop-color="#272B53"/>
<stop offset="1" stop-color="#A5167E"/>
</linearGradient>
<linearGradient id="paint7_linear" x1="209.155" y1="98" x2="209.155" y2="116.926" gradientUnits="userSpaceOnUse">
<stop stop-color="#272B53"/>
<stop offset="1" stop-color="#A5167E"/>
</linearGradient>
<linearGradient id="paint8_linear" x1="341.637" y1="121.657" x2="341.637" y2="135.852" gradientUnits="userSpaceOnUse">
<stop stop-color="#272B53"/>
<stop offset="1" stop-color="#A5167E"/>
</linearGradient>
<linearGradient id="paint9_linear" x1="341.637" y1="98" x2="341.637" y2="112.194" gradientUnits="userSpaceOnUse">
<stop stop-color="#272B53"/>
<stop offset="1" stop-color="#A5167E"/>
</linearGradient>
<linearGradient id="paint10_linear" x1="353.465" y1="112.194" x2="353.465" y2="121.657" gradientUnits="userSpaceOnUse">
<stop stop-color="#272B53"/>
<stop offset="1" stop-color="#A5167E"/>
</linearGradient>
<linearGradient id="paint11_linear" x1="329.808" y1="112.194" x2="329.808" y2="121.657" gradientUnits="userSpaceOnUse">
<stop stop-color="#272B53"/>
<stop offset="1" stop-color="#A5167E"/>
</linearGradient>
<linearGradient id="paint12_linear" x1="296.638" y1="149.947" x2="296.638" y2="183.167" gradientUnits="userSpaceOnUse">
<stop stop-color="#272B53"/>
<stop offset="1" stop-color="#A5167E"/>
</linearGradient>
<linearGradient id="paint13_linear" x1="246.973" y1="187.961" x2="246.973" y2="239.943" gradientUnits="userSpaceOnUse">
<stop stop-color="#272B53"/>
<stop offset="1" stop-color="#A5167E"/>
</linearGradient>
<linearGradient id="paint14_linear" x1="360.563" y1="206.824" x2="360.563" y2="221.019" gradientUnits="userSpaceOnUse">
<stop stop-color="#272B53"/>
<stop offset="1" stop-color="#A5167E"/>
</linearGradient>
<linearGradient id="paint15_linear" x1="375.621" y1="201.337" x2="375.621" y2="214.029" gradientUnits="userSpaceOnUse">
<stop stop-color="#272B53"/>
<stop offset="1" stop-color="#A5167E"/>
</linearGradient>
<linearGradient id="paint16_linear" x1="381.854" y1="187.898" x2="381.854" y2="197.361" gradientUnits="userSpaceOnUse">
<stop stop-color="#272B53"/>
<stop offset="1" stop-color="#A5167E"/>
</linearGradient>
<linearGradient id="paint17_linear" x1="375.592" y1="171.231" x2="375.592" y2="183.981" gradientUnits="userSpaceOnUse">
<stop stop-color="#272B53"/>
<stop offset="1" stop-color="#A5167E"/>
</linearGradient>
<linearGradient id="paint18_linear" x1="360.563" y1="164.241" x2="360.563" y2="178.435" gradientUnits="userSpaceOnUse">
<stop stop-color="#272B53"/>
<stop offset="1" stop-color="#A5167E"/>
</linearGradient>
<linearGradient id="paint19_linear" x1="345.505" y1="171.231" x2="345.505" y2="183.923" gradientUnits="userSpaceOnUse">
<stop stop-color="#272B53"/>
<stop offset="1" stop-color="#A5167E"/>
</linearGradient>
<linearGradient id="paint20_linear" x1="133.449" y1="98.2134" x2="133.449" y2="152.487" gradientUnits="userSpaceOnUse">
<stop stop-color="#272B53"/>
<stop offset="1" stop-color="#A5167E"/>
</linearGradient>
<linearGradient id="paint21_linear" x1="353.416" y1="301.472" x2="353.416" y2="382" gradientUnits="userSpaceOnUse">
<stop stop-color="#272B53"/>
<stop offset="1" stop-color="#A5167E"/>
</linearGradient>
</defs>
</svg>
