<svg width="494" height="494" viewBox="0 0 494 494" fill="none" xmlns="http://www.w3.org/2000/svg">
<rect x="7" y="7" width="480" height="480" rx="83" stroke="url(#paint0_linear)" stroke-width="14"/>
<path d="M357.717 306.486C356.132 305.829 354.307 306.192 353.094 307.405L306.737 353.762C305.524 354.975 305.161 356.799 305.818 358.384C306.474 359.97 308.022 361.003 309.737 361.003H356.094C358.437 361.003 360.336 359.104 360.336 356.761V310.405C360.335 308.689 359.302 307.143 357.717 306.486ZM319.977 352.52L351.851 320.646V352.52H319.977Z" fill="url(#paint1_linear)"/>
<path d="M388.381 238.495C386.797 237.838 384.972 238.201 383.759 239.414L371.054 252.118V165.74C371.054 163.396 369.155 161.498 366.813 161.498H334.221L346.051 149.667C346.053 149.665 346.055 149.663 346.057 149.661L357.456 138.261C359.899 135.819 361.244 132.57 361.244 129.116C361.244 125.661 359.899 122.413 357.456 119.97L344.274 106.787C341.832 104.345 338.583 103 335.128 103C331.674 103 328.425 104.345 325.982 106.787L314.577 118.193L300.795 131.975L271.273 161.497H139.604V119.533C139.604 117.19 137.704 115.291 135.362 115.291C116.966 115.292 102 130.257 102 148.654V328.82C102 329.133 102.036 329.438 102.1 329.731C102.686 337.537 106.063 344.79 111.707 350.295C117.74 356.179 125.704 359.42 134.133 359.42H263.753L239.34 383.832C238.127 385.045 237.765 386.869 238.421 388.455C239.077 390.04 240.625 391.073 242.34 391.073H386.758C389.101 391.073 391 389.174 391 386.831V242.414C391 240.699 389.966 239.152 388.381 238.495ZM331.982 112.787C333.716 111.052 336.542 111.052 338.276 112.787L351.458 125.97C353.193 127.704 353.193 130.528 351.458 132.264L343.053 140.669L323.576 121.193L331.982 112.787ZM317.577 127.192L337.054 146.668L329.27 154.451L309.795 134.975L317.577 127.192ZM382.517 290.078H374.691C372.348 290.078 370.449 291.977 370.449 294.32C370.449 296.663 372.348 298.562 374.691 298.562H382.517V311.344H374.691C372.348 311.344 370.449 313.243 370.449 315.586C370.449 317.929 372.348 319.828 374.691 319.828H382.517V332.61H374.691C372.348 332.61 370.449 334.509 370.449 336.852C370.449 339.195 372.348 341.094 374.691 341.094H382.517V353.876H374.691C372.348 353.876 370.449 355.776 370.449 358.118C370.449 360.461 372.348 362.36 374.691 362.36H382.517V382.591H252.58L295.427 339.745C297.083 338.088 297.083 335.403 295.427 333.746C295.237 333.556 295.032 333.391 294.818 333.244C293.167 332.113 290.894 332.28 289.427 333.746L272.236 350.937H134.133C121.268 350.937 110.912 340.893 110.504 328.051C110.528 327.245 110.591 326.446 110.691 325.656C110.692 325.651 110.693 325.647 110.693 325.642C110.741 325.267 110.798 324.893 110.862 324.522C110.87 324.48 110.878 324.437 110.885 324.395C110.944 324.064 111.011 323.734 111.084 323.405C111.104 323.314 111.126 323.223 111.147 323.132C111.211 322.854 111.281 322.578 111.355 322.303C111.396 322.154 111.438 322.007 111.482 321.858C111.544 321.643 111.608 321.428 111.676 321.215C111.745 321.002 111.818 320.791 111.891 320.581C111.943 320.434 111.994 320.286 112.049 320.14C112.152 319.862 112.262 319.587 112.375 319.315C112.407 319.236 112.438 319.157 112.472 319.078C112.617 318.74 112.768 318.405 112.927 318.074C112.933 318.06 112.94 318.046 112.946 318.032C116.264 311.166 122.645 306.047 130.303 304.458C130.325 304.454 130.346 304.449 130.368 304.444C130.719 304.373 131.073 304.311 131.43 304.254C131.489 304.244 131.549 304.233 131.609 304.224C131.931 304.174 132.257 304.136 132.583 304.099C132.674 304.089 132.765 304.075 132.857 304.066C133.171 304.034 133.489 304.014 133.806 303.994C133.906 303.988 134.007 303.977 134.107 303.972C134.523 303.951 134.941 303.94 135.362 303.94C137.704 303.94 139.604 302.041 139.604 299.698V268.942C139.604 266.599 137.704 264.7 135.362 264.7C133.02 264.7 131.12 266.599 131.12 268.942V295.723C123.957 296.629 117.309 299.824 112.066 304.944C111.514 305.482 110.992 306.042 110.483 306.611V148.654C110.483 136.382 119.416 126.156 131.12 124.137V165.74V251.975V251.976C131.12 254.318 133.019 256.217 135.361 256.217C137.704 256.217 139.603 254.318 139.603 251.976V251.975V169.981H262.79L239.34 193.431C237.683 195.088 237.683 197.773 239.34 199.43C240.997 201.086 243.682 201.086 245.338 199.43L276.029 168.739C276.03 168.738 276.031 168.737 276.032 168.736L303.795 140.974L323.27 160.45L320.985 162.735C320.984 162.737 320.981 162.738 320.98 162.74L235.449 248.272L215.973 228.796L232.832 211.937C234.489 210.279 234.489 207.594 232.832 205.938C231.176 204.282 228.49 204.282 226.834 205.938L206.975 225.796C206.869 225.902 206.769 226.015 206.676 226.13C206.645 226.168 206.617 226.209 206.588 226.249C206.528 226.329 206.47 226.409 206.415 226.493C206.384 226.541 206.356 226.591 206.326 226.641C206.279 226.72 206.234 226.8 206.193 226.882C206.166 226.935 206.142 226.989 206.117 227.044C206.079 227.127 206.044 227.212 206.012 227.297C206 227.326 205.986 227.355 205.975 227.385L197.711 250.795L192.077 266.757C192.002 266.97 191.948 267.185 191.908 267.403H177.802C175.459 267.403 173.56 269.301 173.56 271.644C173.56 273.988 175.459 275.886 177.802 275.886H295.272C297.615 275.886 299.514 273.988 299.514 271.644C299.514 269.301 297.615 267.403 295.272 267.403H210.992L236.861 258.271C236.882 258.263 236.903 258.252 236.924 258.244C237.025 258.207 237.123 258.165 237.221 258.121C237.26 258.103 237.299 258.086 237.337 258.067C237.438 258.016 237.538 257.96 237.636 257.901C237.668 257.881 237.701 257.864 237.732 257.844C237.834 257.779 237.933 257.707 238.031 257.631C238.055 257.613 238.081 257.596 238.104 257.577C238.222 257.482 238.338 257.38 238.448 257.271L325.737 169.982H362.57V260.603L301.894 321.28C300.237 322.937 300.237 325.622 301.894 327.279C301.997 327.382 302.105 327.479 302.216 327.57C302.994 328.204 303.944 328.521 304.893 328.521C305.843 328.521 306.793 328.204 307.57 327.57C307.682 327.48 307.789 327.382 307.893 327.279C307.894 327.277 307.893 327.279 307.894 327.277L382.517 252.653V290.078ZM227.691 252.51L215.54 256.799L207.445 248.704L211.734 236.554L227.691 252.51Z" fill="url(#paint2_linear)"/>
<defs>
<linearGradient id="paint0_linear" x1="247" y1="0" x2="247" y2="494" gradientUnits="userSpaceOnUse">
<stop stop-color="#272B53"/>
<stop offset="1" stop-color="#A5167E"/>
</linearGradient>
<linearGradient id="paint1_linear" x1="332.915" y1="306.163" x2="332.915" y2="361.003" gradientUnits="userSpaceOnUse">
<stop stop-color="#272B53"/>
<stop offset="1" stop-color="#A5167E"/>
</linearGradient>
<linearGradient id="paint2_linear" x1="246.5" y1="103" x2="246.5" y2="391.073" gradientUnits="userSpaceOnUse">
<stop stop-color="#272B53"/>
<stop offset="1" stop-color="#A5167E"/>
</linearGradient>
</defs>
</svg>
