<svg width="865" height="866" viewBox="0 0 865 866" fill="none" xmlns="http://www.w3.org/2000/svg">
<path d="M865 0.200195H0V865.2H865V0.200195Z" fill="#1C3661"/>
<path d="M108.145 766.554H100.232V773.43H109.488V775.465H97.6479V756.24H109.345V758.275H100.232V764.52H108.145V766.554Z" fill="#D3BB8C"/>
<path d="M127.106 775.465H124.502L115.246 760.777V775.425H112.642V756.2H115.246L124.502 770.868V756.221H127.106V775.465Z" fill="#D3BB8C"/>
<path d="M141.854 770.623C141.86 770.212 141.78 769.804 141.619 769.425C141.458 769.047 141.219 768.707 140.918 768.426C139.943 767.676 138.809 767.161 137.603 766.92C135.933 766.568 134.368 765.837 133.025 764.784C132.504 764.351 132.088 763.806 131.806 763.19C131.524 762.574 131.385 761.902 131.398 761.224C131.389 760.504 131.543 759.791 131.85 759.139C132.157 758.487 132.607 757.913 133.168 757.461C134.467 756.419 136.101 755.884 137.765 755.955C139.537 755.874 141.27 756.496 142.587 757.685C143.16 758.193 143.615 758.821 143.921 759.523C144.226 760.226 144.375 760.987 144.357 761.753H141.875C141.89 761.245 141.793 760.74 141.593 760.272C141.393 759.805 141.093 759.387 140.715 759.047C139.92 758.383 138.925 758.003 137.888 757.97C136.852 757.937 135.835 758.252 134.999 758.864C134.683 759.156 134.435 759.513 134.27 759.91C134.105 760.306 134.027 760.734 134.042 761.163C134.044 761.562 134.141 761.955 134.325 762.309C134.509 762.663 134.775 762.967 135.1 763.198C136.144 763.915 137.319 764.42 138.559 764.683C140.197 765.028 141.718 765.792 142.973 766.9C143.471 767.379 143.859 767.959 144.112 768.602C144.365 769.244 144.476 769.933 144.438 770.623C144.458 771.345 144.301 772.062 143.982 772.71C143.663 773.359 143.191 773.92 142.607 774.346C141.222 775.351 139.536 775.854 137.826 775.77C136.059 775.796 134.331 775.246 132.903 774.203C132.234 773.742 131.695 773.116 131.338 772.385C130.982 771.655 130.82 770.844 130.869 770.033H133.351C133.328 770.576 133.444 771.117 133.685 771.604C133.927 772.091 134.288 772.509 134.734 772.82C135.627 773.483 136.714 773.833 137.826 773.817C138.868 773.873 139.9 773.58 140.756 772.983C141.123 772.713 141.415 772.356 141.607 771.944C141.8 771.531 141.884 771.077 141.854 770.623Z" fill="#D3BB8C"/>
<path d="M158.679 766.554H150.745V773.43H159.981V775.465H148.141V756.24H159.839V758.275H150.745V764.52H158.679V766.554Z" fill="#D3BB8C"/>
<path d="M172.593 771.864L178.696 756.24H181.931V775.465H179.327V761.062L173.509 775.485H171.698L165.697 760.594V775.465H163.093V756.24H166.51L172.593 771.864Z" fill="#D3BB8C"/>
<path d="M186.549 775.465V756.24H192.815C194.489 756.139 196.149 756.597 197.534 757.542C198.112 758.008 198.569 758.606 198.866 759.286C199.164 759.966 199.293 760.708 199.243 761.448C199.249 762.254 198.975 763.038 198.47 763.666C197.938 764.34 197.236 764.859 196.436 765.171C197.608 765.298 198.683 765.883 199.426 766.799C200.236 767.876 200.621 769.213 200.508 770.556C200.396 771.899 199.793 773.154 198.816 774.081C197.476 775.064 195.837 775.553 194.178 775.465H186.549ZM189.193 764.52H193.405C194.262 764.558 195.103 764.275 195.764 763.727C196.072 763.444 196.313 763.096 196.471 762.71C196.63 762.323 196.701 761.906 196.68 761.489C196.712 761.053 196.64 760.615 196.47 760.212C196.301 759.809 196.038 759.452 195.703 759.17C194.869 758.597 193.865 758.325 192.855 758.397H189.193V764.52ZM189.193 766.554V773.532H194.218C195.217 773.591 196.202 773.279 196.985 772.657C197.317 772.339 197.576 771.952 197.745 771.523C197.913 771.095 197.987 770.635 197.961 770.176C197.985 769.699 197.908 769.223 197.736 768.778C197.565 768.333 197.302 767.929 196.965 767.592C196.221 766.926 195.258 766.556 194.259 766.554H189.193Z" fill="#D3BB8C"/>
<path d="M206.343 773.43H215.64V775.465H203.657V756.24H206.261L206.343 773.43Z" fill="#D3BB8C"/>
<path d="M229.107 766.554H221.214V773.43H230.45V775.465H218.61V756.24H230.307V758.275H221.214V764.52H229.107V766.554Z" fill="#D3BB8C"/>
<path d="M235.454 774.835L233.42 778.904H231.915L232.85 774.733V772.658H235.454V774.835Z" fill="#D3BB8C"/>
<path d="M248.188 767.146V775.466H245.584V756.262H252.257C253.979 756.147 255.687 756.645 257.079 757.666C257.646 758.173 258.089 758.804 258.374 759.509C258.66 760.214 258.78 760.976 258.726 761.735C258.754 762.657 258.483 763.563 257.953 764.318C257.385 765.099 256.61 765.705 255.716 766.068C256.655 766.324 257.466 766.918 257.994 767.736C258.473 768.607 258.711 769.59 258.686 770.584V772.395C258.679 772.943 258.741 773.489 258.869 774.022C258.992 774.464 259.23 774.864 259.56 775.182V775.487H256.896C256.524 775.138 256.286 774.67 256.224 774.164C256.125 773.573 256.077 772.974 256.082 772.374V770.625C256.122 769.696 255.793 768.789 255.166 768.102C254.847 767.785 254.465 767.538 254.044 767.377C253.624 767.216 253.175 767.144 252.725 767.166L248.188 767.146ZM248.188 765.112H251.911C253.034 765.206 254.154 764.912 255.085 764.278C255.423 763.947 255.684 763.546 255.849 763.103C256.015 762.66 256.08 762.186 256.041 761.714C256.069 761.252 256 760.789 255.839 760.355C255.678 759.92 255.428 759.524 255.105 759.192C254.28 758.53 253.229 758.217 252.176 758.317H248.107L248.188 765.112Z" fill="#D3BB8C"/>
<path d="M273.293 766.555H265.399V773.431H274.635V775.465H262.775V756.241H274.472V758.275H265.379V764.521H273.272L273.293 766.555ZM269.977 750.87H273.028L269.488 754.349H267.454L269.977 750.87Z" fill="#D3BB8C"/>
<path d="M280.596 775.465H277.992V756.24H280.596V775.465Z" fill="#D3BB8C"/>
<path d="M299.903 775.465H297.299L288.043 760.777V775.425H285.459V756.2H288.043L297.299 770.868V756.221H299.903V775.465Z" fill="#D3BB8C"/>
<path d="M310.236 770.421L310.684 772.028L311.111 770.421L316.075 756.181H318.882L311.742 775.405H309.524L302.363 756.181H305.191L310.236 770.421Z" fill="#D3BB8C"/>
<path d="M332.004 766.554H324.111V773.43H333.346V775.465H321.425V756.24H333.123V758.275H324.029V764.52H331.922L332.004 766.554Z" fill="#D3BB8C"/>
<path d="M350.964 775.465H348.36L339.104 760.777V775.425H336.5V756.2H339.104L348.36 770.868V756.221H350.964V775.465Z" fill="#D3BB8C"/>
<path d="M368.541 758.296H362.112V775.466H359.508V758.296H353.243V756.262H368.459L368.541 758.296Z" fill="#D3BB8C"/>
<path d="M385.588 767.573C385.627 768.646 385.452 769.716 385.075 770.722C384.698 771.727 384.126 772.648 383.391 773.432C382.665 774.201 381.783 774.806 380.804 775.206C379.825 775.606 378.772 775.792 377.715 775.751C376.689 775.785 375.668 775.596 374.723 775.195C373.778 774.795 372.931 774.193 372.243 773.432C370.844 771.809 370.117 769.713 370.208 767.573V764.155C370.119 762.015 370.846 759.92 372.243 758.296C372.93 757.532 373.776 756.928 374.721 756.524C375.666 756.12 376.688 755.926 377.715 755.957C378.773 755.919 379.827 756.109 380.806 756.512C381.785 756.916 382.666 757.524 383.391 758.296C384.126 759.08 384.698 760 385.075 761.006C385.452 762.012 385.627 763.082 385.588 764.155V767.573ZM382.984 764.135C383.046 762.566 382.54 761.028 381.56 759.802C381.092 759.244 380.502 758.801 379.835 758.508C379.168 758.216 378.443 758.08 377.715 758.113C377.021 758.088 376.331 758.229 375.702 758.522C375.072 758.816 374.521 759.254 374.094 759.802C373.157 761.046 372.683 762.578 372.751 764.135V767.573C372.683 769.135 373.157 770.674 374.094 771.926C374.521 772.474 375.072 772.912 375.702 773.206C376.331 773.499 377.021 773.64 377.715 773.615C378.441 773.649 379.165 773.516 379.831 773.227C380.497 772.937 381.089 772.5 381.56 771.947C382.548 770.709 383.054 769.155 382.984 767.573V764.135Z" fill="#D3BB8C"/>
<path d="M403.877 775.465H401.273L392.017 760.777V775.425H389.413V756.2H392.017L401.273 770.868V756.221H403.877V775.465Z" fill="#D3BB8C"/>
<path d="M418.626 770.624C418.632 770.213 418.552 769.805 418.391 769.426C418.229 769.048 417.991 768.707 417.69 768.427C416.715 767.677 415.581 767.162 414.374 766.921C412.705 766.569 411.139 765.838 409.797 764.785C409.273 764.355 408.854 763.81 408.572 763.193C408.29 762.577 408.152 761.903 408.17 761.225C408.156 760.504 408.309 759.79 408.616 759.137C408.923 758.484 409.376 757.911 409.94 757.462C411.233 756.422 412.859 755.888 414.517 755.956C416.296 755.87 418.037 756.491 419.359 757.685C419.929 758.195 420.381 758.823 420.683 759.526C420.986 760.229 421.131 760.989 421.108 761.754H418.626C418.644 761.248 418.551 760.743 418.354 760.276C418.157 759.809 417.861 759.39 417.487 759.048C417.094 758.685 416.632 758.402 416.13 758.217C415.627 758.032 415.093 757.948 414.558 757.97C413.55 757.912 412.556 758.232 411.77 758.865C411.448 759.153 411.194 759.508 411.025 759.905C410.856 760.303 410.777 760.733 410.794 761.164C410.799 761.564 410.9 761.958 411.088 762.311C411.275 762.665 411.544 762.969 411.872 763.198C412.91 763.913 414.078 764.417 415.31 764.683C416.956 765.024 418.485 765.789 419.745 766.901C420.24 767.363 420.632 767.924 420.895 768.548C421.158 769.172 421.286 769.845 421.271 770.522C421.285 771.244 421.127 771.958 420.808 772.606C420.49 773.254 420.02 773.816 419.44 774.245C418.054 775.248 416.368 775.75 414.659 775.669C412.892 775.695 411.163 775.146 409.736 774.102C409.064 773.644 408.522 773.019 408.166 772.287C407.809 771.556 407.649 770.744 407.702 769.932H410.184C410.157 770.474 410.268 771.014 410.507 771.501C410.745 771.988 411.103 772.407 411.547 772.719C412.448 773.382 413.541 773.732 414.659 773.716C415.701 773.769 416.731 773.476 417.589 772.882C417.93 772.616 418.202 772.272 418.382 771.879C418.563 771.486 418.646 771.056 418.626 770.624Z" fill="#D3BB8C"/>
<path d="M434.229 773.43H443.607V775.465H431.625V756.24H434.229V773.43Z" fill="#D3BB8C"/>
<path d="M456.668 770.625H449.447L447.717 775.568H445.073L452.01 756.344H454.227L461.022 775.568H458.377L456.668 770.625ZM450.199 768.448H455.936L453.149 760.189L450.199 768.448Z" fill="#D3BB8C"/>
<path d="M484.396 772.881C483.781 773.744 482.964 774.443 482.016 774.916C480.637 775.561 479.123 775.868 477.601 775.811C476.582 775.844 475.567 775.664 474.621 775.282C473.675 774.9 472.819 774.325 472.109 773.593C471.373 772.844 470.798 771.952 470.42 770.973C470.043 769.993 469.869 768.946 469.911 767.897V763.93C469.809 761.837 470.54 759.789 471.946 758.234C472.639 757.503 473.48 756.927 474.413 756.544C475.346 756.162 476.35 755.982 477.357 756.017C479.202 755.915 481.016 756.527 482.423 757.726C483.028 758.272 483.504 758.946 483.817 759.699C484.13 760.452 484.272 761.265 484.233 762.079H481.731C481.745 761.54 481.651 761.003 481.456 760.5C481.26 759.997 480.966 759.538 480.592 759.15C480.164 758.747 479.658 758.436 479.105 758.236C478.552 758.037 477.964 757.953 477.377 757.99C476.696 757.967 476.02 758.104 475.401 758.39C474.783 758.676 474.24 759.104 473.817 759.638C472.891 760.833 472.415 762.317 472.475 763.829V767.897C472.403 769.43 472.912 770.934 473.899 772.108C474.34 772.644 474.896 773.073 475.527 773.362C476.158 773.651 476.846 773.793 477.54 773.776C478.463 773.817 479.385 773.665 480.246 773.329C480.815 773.104 481.324 772.749 481.731 772.291V767.958H477.377V765.924H484.335L484.396 772.881Z" fill="#D3BB8C"/>
<path d="M499.39 766.554H491.496V773.43H500.732V775.465H488.893V756.24H500.59V758.275H491.496V764.52H499.39V766.554Z" fill="#D3BB8C"/>
<path d="M514.056 770.624C514.062 770.213 513.982 769.805 513.82 769.427C513.659 769.049 513.421 768.708 513.12 768.427C512.145 767.678 511.01 767.163 509.804 766.922C508.14 766.574 506.579 765.843 505.247 764.786C504.719 764.358 504.296 763.814 504.011 763.197C503.725 762.58 503.584 761.906 503.6 761.226C503.591 760.505 503.745 759.792 504.052 759.141C504.358 758.489 504.809 757.915 505.369 757.462C506.745 756.448 508.419 755.92 510.127 755.96C511.836 756.001 513.483 756.608 514.809 757.686C515.376 758.198 515.826 758.827 516.128 759.529C516.43 760.231 516.577 760.991 516.558 761.755H514.076C514.091 761.247 513.995 760.741 513.795 760.274C513.595 759.807 513.295 759.389 512.917 759.049C512.122 758.384 511.126 758.005 510.09 757.971C509.054 757.938 508.037 758.253 507.2 758.866C506.885 759.158 506.637 759.514 506.472 759.911C506.307 760.308 506.229 760.735 506.244 761.165C506.246 761.564 506.342 761.956 506.526 762.31C506.71 762.664 506.976 762.969 507.302 763.199C508.346 763.917 509.521 764.422 510.76 764.684C512.399 765.029 513.92 765.793 515.175 766.902C515.687 767.373 516.091 767.95 516.358 768.593C516.625 769.236 516.749 769.929 516.721 770.624C516.741 771.347 516.584 772.063 516.265 772.712C515.946 773.36 515.474 773.922 514.89 774.347C513.505 775.353 511.819 775.855 510.109 775.771C508.342 775.798 506.614 775.248 505.186 774.205C504.517 773.744 503.978 773.117 503.621 772.387C503.265 771.656 503.103 770.846 503.152 770.034H505.634C505.612 770.578 505.727 771.118 505.969 771.605C506.21 772.092 506.571 772.511 507.017 772.821C507.912 773.481 508.998 773.832 510.109 773.818C511.152 773.875 512.183 773.581 513.039 772.984C513.391 772.706 513.668 772.345 513.845 771.933C514.023 771.521 514.095 771.071 514.056 770.624Z" fill="#D3BB8C"/>
<path d="M533.789 758.296H527.442V775.466H524.859V758.296H518.593V756.262H533.81L533.789 758.296Z" fill="#D3BB8C"/>
<path d="M539.404 775.465H536.78V756.24H539.404V775.465Z" fill="#D3BB8C"/>
<path d="M558.853 767.572C558.892 768.646 558.717 769.716 558.34 770.722C557.963 771.727 557.391 772.648 556.656 773.431C555.934 774.199 555.055 774.803 554.079 775.203C553.104 775.604 552.054 775.79 551.001 775.75C549.971 775.787 548.947 775.598 547.998 775.197C547.05 774.797 546.2 774.194 545.508 773.431C544.109 771.808 543.382 769.713 543.474 767.572V764.155C543.384 762.014 544.111 759.92 545.508 758.296C546.198 757.529 547.047 756.923 547.996 756.519C548.944 756.115 549.97 755.923 551.001 755.956C552.055 755.921 553.106 756.111 554.081 756.515C555.057 756.918 555.935 757.525 556.656 758.296C557.391 759.079 557.963 760 558.34 761.006C558.717 762.011 558.892 763.082 558.853 764.155V767.572ZM556.249 764.134C556.311 762.566 555.805 761.028 554.825 759.801C554.359 759.246 553.772 758.805 553.109 758.513C552.446 758.22 551.725 758.083 551.001 758.113C550.303 758.085 549.609 758.223 548.976 758.517C548.342 758.811 547.788 759.251 547.359 759.801C546.422 761.046 545.948 762.578 546.016 764.134V767.572C545.948 769.135 546.422 770.673 547.359 771.926C547.788 772.476 548.342 772.917 548.976 773.21C549.609 773.504 550.303 773.642 551.001 773.614C551.723 773.648 552.444 773.515 553.107 773.226C553.77 772.937 554.358 772.499 554.825 771.946C555.813 770.708 556.319 769.155 556.249 767.572V764.134Z" fill="#D3BB8C"/>
<path d="M577.141 775.465H574.537L565.281 760.777V775.425H562.677V756.2H565.281L574.537 770.868V756.221H577.141V775.465Z" fill="#D3BB8C"/>
<path d="M588.37 775.465V756.241H594.473C595.581 756.179 596.69 756.352 597.727 756.747C598.764 757.141 599.706 757.75 600.492 758.533C601.279 759.315 601.892 760.255 602.292 761.29C602.692 762.325 602.87 763.433 602.814 764.541V767.185C602.856 768.286 602.673 769.384 602.278 770.412C601.883 771.44 601.283 772.377 600.515 773.166C599.711 773.95 598.754 774.558 597.704 774.954C596.654 775.349 595.533 775.524 594.412 775.465H588.37ZM590.974 758.295V773.431H594.412C595.199 773.466 595.985 773.327 596.713 773.025C597.44 772.723 598.093 772.264 598.623 771.681C599.671 770.423 600.215 768.821 600.149 767.185V764.52C600.211 762.891 599.668 761.297 598.623 760.045C598.095 759.459 597.443 758.998 596.715 758.695C595.987 758.392 595.2 758.256 594.412 758.295H590.974Z" fill="#D3BB8C"/>
<path d="M617.176 766.554H609.283V773.43H618.438V775.465H606.598V756.24H618.438V758.275H609.283V764.52H617.176V766.554Z" fill="#D3BB8C"/>
<path d="M630.929 767.755V775.465H628.325V756.241H635.689C637.428 756.136 639.14 756.704 640.47 757.828C641.567 758.943 642.182 760.444 642.182 762.008C642.182 763.572 641.567 765.074 640.47 766.189C639.132 767.296 637.424 767.856 635.689 767.755H630.929ZM630.929 765.721H635.689C636.22 765.762 636.753 765.691 637.255 765.513C637.756 765.334 638.214 765.051 638.599 764.683C639.217 763.933 639.555 762.991 639.555 762.018C639.555 761.046 639.217 760.104 638.599 759.353C638.217 758.98 637.76 758.692 637.259 758.51C636.757 758.327 636.222 758.254 635.689 758.296H630.929V765.721Z" fill="#D3BB8C"/>
<path d="M653.632 770.625H646.39L644.681 775.568H642.016L648.953 756.344H651.171L657.965 775.568H655.321L653.632 770.625ZM647.143 768.448H652.879L650.092 760.189L647.143 768.448Z" fill="#D3BB8C"/>
<path d="M672.532 758.296H666.205V775.466H663.601V758.296H657.335V756.262H672.532V758.296Z" fill="#D3BB8C"/>
<path d="M677.861 767.146V775.466H675.257V756.262H681.848C683.57 756.147 685.278 756.645 686.669 757.666C687.239 758.172 687.685 758.802 687.974 759.507C688.264 760.212 688.388 760.974 688.338 761.735C688.36 762.659 688.081 763.566 687.544 764.318C686.976 765.099 686.201 765.705 685.306 766.068C686.246 766.324 687.057 766.918 687.585 767.736C688.072 768.604 688.311 769.589 688.277 770.584V772.395C688.266 772.944 688.335 773.492 688.48 774.022C688.588 774.465 688.821 774.867 689.151 775.182V775.487H686.486C686.115 775.138 685.877 774.67 685.815 774.164C685.716 773.573 685.668 772.974 685.673 772.374V770.625C685.713 769.696 685.383 768.789 684.757 768.102C684.438 767.785 684.056 767.538 683.635 767.377C683.215 767.216 682.766 767.144 682.316 767.166L677.861 767.146ZM677.861 765.112H681.502C682.625 765.206 683.745 764.912 684.676 764.278C685.016 763.948 685.281 763.548 685.449 763.105C685.618 762.662 685.687 762.187 685.652 761.714C685.677 761.25 685.605 760.787 685.441 760.352C685.276 759.918 685.022 759.523 684.696 759.192C683.871 758.53 682.82 758.217 681.767 758.317H677.698L677.861 765.112Z" fill="#D3BB8C"/>
<path d="M695.357 775.465H692.732V756.24H695.357V775.465Z" fill="#D3BB8C"/>
<path d="M709.658 771.864L715.761 756.24H718.996V775.465H716.392V761.062L710.574 775.485H708.763L702.762 760.594V775.465H700.158V756.24H703.575L709.658 771.864Z" fill="#D3BB8C"/>
<path d="M738.302 767.572C738.34 768.646 738.166 769.716 737.789 770.722C737.412 771.727 736.839 772.648 736.105 773.431C735.382 774.199 734.503 774.803 733.528 775.203C732.552 775.604 731.503 775.79 730.449 775.75C729.423 775.788 728.401 775.599 727.455 775.199C726.51 774.798 725.664 774.195 724.977 773.431C723.578 771.808 722.85 769.713 722.942 767.572V764.155C722.855 762.015 723.582 759.921 724.977 758.296C725.663 757.53 726.508 756.923 727.453 756.519C728.399 756.115 729.421 755.923 730.449 755.956C731.504 755.921 732.554 756.111 733.53 756.515C734.505 756.918 735.383 757.525 736.105 758.296C736.839 759.079 737.412 760 737.789 761.006C738.166 762.011 738.34 763.082 738.302 764.155V767.572ZM735.698 764.134C735.769 762.565 735.262 761.023 734.274 759.801C733.808 759.246 733.221 758.805 732.557 758.513C731.894 758.22 731.173 758.083 730.449 758.113C729.752 758.085 729.057 758.223 728.424 758.517C727.791 758.811 727.237 759.251 726.808 759.801C725.871 761.046 725.396 762.578 725.465 764.134V767.572C725.396 769.135 725.871 770.673 726.808 771.926C727.237 772.476 727.791 772.917 728.424 773.21C729.057 773.504 729.752 773.642 730.449 773.614C731.172 773.648 731.892 773.515 732.556 773.226C733.219 772.937 733.807 772.499 734.274 771.946C735.261 770.708 735.767 769.155 735.698 767.572V764.134Z" fill="#D3BB8C"/>
<path d="M744.934 775.465H742.31V756.24H744.934V775.465Z" fill="#D3BB8C"/>
<path d="M764.239 775.465H761.636L752.379 760.777V775.425H749.775V756.2H752.379L761.636 770.868V756.221H764.239V775.465Z" fill="#D3BB8C"/>
<path d="M779.15 766.554H771.257V773.43H780.493V775.465H768.653V756.24H780.351V758.275H771.257V764.52H779.15V766.554Z" fill="#D3BB8C"/>
<path d="M327.834 602.282V330.047L202.946 454.914V602.282H100.09" stroke="white" stroke-width="2.76" stroke-miterlimit="10"/>
<path d="M280.373 602.283V262.609H427.74V602.283" stroke="white" stroke-width="2.76" stroke-miterlimit="10"/>
<path d="M539.974 602.283V147.711H470.42V90.2812H455.448H390.125V145.229V602.283" stroke="white" stroke-width="2.76" stroke-miterlimit="10"/>
<path d="M567.6 602.284V444.928H672.49V602.284H780.9" stroke="white" stroke-width="2.76" stroke-miterlimit="10"/>
<path d="M510.822 602.283V229.552L639.453 354.602V715.657" stroke="#D3BB8C" stroke-width="2.76" stroke-miterlimit="10"/>
<path d="M213.097 671.918C213.565 692.566 200.342 713.439 171.942 713.439H144.438V632.269H171.942C199.365 632.269 212.649 651.981 213.097 671.918ZM150.704 638.188V707.356H171.942C196.049 707.356 207.197 689.25 206.831 671.857C206.485 654.931 195.357 638.127 171.942 638.127L150.704 638.188Z" fill="white"/>
<path d="M252.869 669.721H300.411V675.396H252.869V707.417H304.134V713.52H246.725V632.269H302.73V638.188H252.869V669.721Z" fill="white"/>
<path d="M408.251 641.301L377.186 688.864H375.152L343.803 641.301V713.439H337.537V632.269H344.962L376.027 679.669L406.745 632.35H414.415V713.52H408.312L408.251 641.301Z" fill="white"/>
<path d="M457.888 669.721H505.431V675.396H457.888V707.417H509.133V713.52H451.724V632.269H507.75V638.188H457.888V669.721Z" fill="white"/>
<path d="M570.245 637.944H540.91V632.37H605.846V637.944H576.511V713.438H570.245V637.944Z" fill="white"/>
<path d="M735.718 647.912C729.798 638.412 720.298 637.008 711.123 636.906C701.623 636.906 686.548 640.385 686.548 653.364C686.548 663.698 697.676 666.119 711.367 668.683C727.011 671.693 743.245 674.48 743.245 691.996C743.144 710.305 724.692 714.72 711.123 714.72C698.49 714.72 684.107 709.491 677.841 697.082L683.415 694.315C688.399 704.161 701.155 709.044 711.123 709.044C721.091 709.044 736.979 706.257 736.979 691.874C737.101 679.668 723.655 677.023 710.309 674.48C695.479 671.571 680.282 668.561 680.282 653.608C679.937 636.438 697.798 631.108 711.123 631.108C722.719 631.108 732.809 632.96 740.824 644.901L735.718 647.912Z" fill="white"/>
</svg>
