<svg width="3186" height="749" viewBox="0 0 3186 749" fill="none" xmlns="http://www.w3.org/2000/svg">
<path d="M891.08 208.288V540.495H809V289.73L891.08 208.288Z" fill="#A5167E"/>
<path d="M1072.32 540.494C1049.46 540.494 1027.89 535.988 1007.61 527.296C987.65 518.605 969.95 506.694 954.82 491.565C939.69 476.435 927.78 459.052 919.09 438.772C910.4 418.814 905.89 397.246 905.89 374.069C905.89 351.214 910.4 329.324 919.09 309.044C927.78 288.764 939.69 271.059 954.82 255.93C969.95 240.8 987.33 228.89 1007.61 220.198C1027.57 211.507 1049.14 207 1072.32 207C1094.85 207 1116.09 211.185 1136.37 219.554C1156.65 227.924 1174.68 240.156 1190.45 255.93L1132.19 314.195C1124.14 306.147 1115.13 300.031 1104.83 296.168C1094.53 292.305 1083.9 290.052 1072.32 290.052C1060.73 290.052 1050.1 292.305 1039.8 296.812C1029.5 301.318 1020.49 307.113 1013.09 314.517C1005.36 321.921 999.57 330.934 995.06 341.235C990.55 351.536 988.3 362.481 988.3 374.069C988.3 385.658 990.55 396.603 995.06 406.904C999.57 417.205 1005.36 425.896 1013.09 433.622C1020.81 441.026 1029.5 447.142 1039.8 451.327C1050.1 455.833 1060.73 458.086 1072.32 458.086C1083.9 458.086 1094.53 455.833 1104.83 451.648C1115.13 447.464 1124.14 441.347 1132.19 433.3L1190.45 491.565C1174.68 507.338 1156.65 519.57 1136.37 527.94C1116.09 536.309 1094.53 540.494 1072.32 540.494Z" fill="#A5167E"/>
<path d="M1330.81 540.494C1307.95 540.494 1286.38 535.988 1266.1 527.296C1246.14 518.605 1228.44 506.694 1213.31 491.565C1198.18 476.435 1186.27 459.052 1177.58 438.772C1168.89 418.814 1164.38 397.247 1164.38 374.069C1164.38 351.536 1168.89 329.968 1177.58 309.688C1186.27 289.408 1198.18 271.703 1213.31 256.895C1228.44 241.766 1245.82 229.855 1266.1 221.164C1286.06 212.472 1307.63 207.966 1330.81 207.966C1353.66 207.966 1374.91 212.472 1395.19 221.164C1415.47 229.855 1433.17 241.766 1447.98 256.895C1463.11 272.025 1475.02 289.73 1483.71 309.688C1492.4 329.968 1496.91 351.214 1496.91 374.069C1496.91 396.925 1492.4 418.492 1483.71 438.772C1475.02 458.73 1463.11 476.435 1447.98 491.565C1432.85 506.694 1415.14 518.605 1395.19 527.296C1374.91 536.31 1353.66 540.494 1330.81 540.494ZM1330.81 291.339C1319.22 291.339 1308.27 293.593 1297.97 298.099C1287.67 302.606 1278.98 308.401 1271.25 315.804C1263.53 323.208 1257.73 332.222 1253.55 342.201C1249.04 352.18 1246.79 363.125 1246.79 374.391C1246.79 385.98 1249.04 396.925 1253.55 407.226C1258.05 417.527 1263.85 426.218 1271.25 433.944C1278.66 441.348 1287.67 447.464 1297.97 451.649C1308.27 456.155 1319.22 458.409 1330.81 458.409C1342.07 458.409 1353.02 456.155 1363 451.649C1372.98 447.142 1381.99 441.348 1389.39 433.944C1396.8 426.54 1402.91 417.527 1407.1 407.226C1411.6 396.925 1413.86 385.98 1413.86 374.391C1413.86 363.125 1411.6 352.18 1407.1 342.201C1402.59 332.222 1396.8 323.208 1389.39 315.804C1381.99 308.401 1372.98 302.284 1363 298.099C1353.02 293.593 1342.39 291.339 1330.81 291.339Z" fill="#A5167E"/>
<path d="M1815.6 540.495H1734.15V361.837C1734.15 351.858 1732.22 342.523 1728.68 333.832C1724.82 325.14 1719.67 317.736 1713.23 311.298C1706.79 304.86 1699.07 300.031 1690.37 296.168C1681.68 292.305 1672.35 290.696 1662.69 290.696C1652.71 290.696 1643.38 292.627 1634.68 296.168C1625.99 300.031 1618.27 304.86 1611.51 311.298C1604.75 317.736 1599.6 325.14 1596.06 333.832C1592.19 342.523 1590.58 351.858 1590.58 361.837V540.495H1509.14V361.837C1509.14 340.913 1513 320.955 1521.05 302.285C1529.1 283.614 1540.04 267.197 1554.21 253.355C1568.05 239.513 1584.47 228.246 1603.14 220.199C1621.81 212.151 1641.77 208.288 1663.01 208.288C1683.94 208.288 1703.89 212.151 1722.56 220.199C1741.23 228.246 1757.33 239.191 1771.17 253.355C1785.01 267.197 1795.64 283.614 1803.68 302.285C1811.73 320.955 1815.6 340.913 1815.6 361.837V540.495Z" fill="#A5167E"/>
<path d="M1912.49 208.288V540.495H1830.4V289.73L1912.49 208.288Z" fill="#A5167E"/>
<path d="M2093.72 540.494C2070.87 540.494 2049.3 535.988 2029.02 527.296C2009.06 518.605 1991.35 506.694 1976.23 491.565C1961.1 476.435 1949.19 459.052 1940.49 438.772C1931.8 418.814 1927.3 397.246 1927.3 374.069C1927.3 351.214 1931.8 329.324 1940.49 309.044C1949.19 288.764 1961.1 271.059 1976.23 255.93C1991.35 240.8 2008.74 228.89 2029.02 220.198C2048.98 211.507 2070.54 207 2093.72 207C2116.25 207 2137.5 211.185 2157.78 219.554C2178.06 227.924 2196.09 240.156 2211.86 255.93L2153.59 314.839C2145.55 306.791 2136.53 300.674 2126.23 296.812C2115.93 292.949 2105.31 290.695 2093.72 290.695C2082.45 290.695 2071.51 292.949 2061.21 297.455C2050.91 301.962 2041.89 307.757 2034.49 315.161C2026.76 322.564 2020.97 331.578 2016.46 341.879C2011.96 352.18 2009.7 363.124 2009.7 374.713C2009.7 386.302 2011.96 397.246 2016.46 407.547C2020.97 417.848 2026.76 426.54 2034.49 434.266C2042.22 441.669 2050.91 447.786 2061.21 451.97C2071.51 456.477 2082.13 458.73 2093.72 458.73C2104.99 458.73 2115.93 456.477 2126.23 452.292C2136.53 448.107 2145.55 441.991 2153.59 433.944L2211.86 492.208C2196.09 507.982 2178.06 520.214 2157.78 528.584C2137.5 536.309 2115.93 540.494 2093.72 540.494Z" fill="#A5167E"/>
<path d="M2543.42 174V374.225C2543.42 397.08 2538.92 418.648 2530.22 438.928C2521.53 458.886 2509.62 476.591 2494.81 491.398C2480.01 506.206 2462.3 518.116 2442.02 526.808C2421.74 535.499 2400.17 539.684 2377.32 539.684C2354.46 539.684 2332.9 535.499 2312.62 526.808C2292.66 518.116 2274.95 506.528 2260.15 491.398C2245.34 476.591 2233.43 458.886 2224.74 438.928C2216.04 418.97 2211.86 397.402 2211.86 374.225C2211.86 351.692 2216.04 330.124 2224.74 309.844C2233.43 289.564 2245.02 271.859 2260.15 257.051C2274.95 241.922 2292.66 230.011 2312.62 221.32C2332.57 212.628 2354.14 208.122 2377.32 208.122L2460.37 290.208H2377.32C2366.05 290.208 2355.11 292.461 2345.13 296.968C2335.15 301.474 2326.14 307.269 2318.73 314.672C2311.33 322.076 2305.21 331.09 2301.03 341.39C2296.52 351.691 2294.27 362.636 2294.27 374.225C2294.27 385.492 2296.52 396.436 2301.03 406.415C2305.53 416.394 2311.33 425.408 2318.73 432.812C2326.14 440.215 2334.83 446.332 2345.13 450.516C2355.11 455.023 2366.05 457.276 2377.32 457.276C2388.91 457.276 2399.85 455.023 2410.15 450.516C2420.45 446.01 2429.15 440.215 2436.87 432.812C2444.28 425.408 2450.39 416.716 2454.58 406.415C2459.08 396.436 2461.34 385.492 2461.34 374.225V174H2543.42Z" fill="#21254F"/>
<path d="M2661.24 331.089H2794.19C2787.1 318.213 2776.8 307.59 2763.93 299.864C2751.05 292.138 2736.89 287.954 2720.79 287.954C2709.2 287.954 2698.26 290.207 2687.96 294.714C2677.66 299.22 2668.64 305.337 2660.92 313.062C2653.19 320.788 2647.08 329.801 2642.57 340.102C2638.06 350.403 2635.81 361.348 2635.81 372.937C2635.81 384.525 2638.06 395.47 2642.57 405.771C2647.08 416.072 2653.19 425.085 2660.92 432.811C2668.64 440.537 2677.66 446.653 2687.96 451.16C2698.26 455.666 2709.2 457.92 2720.79 457.92H2849.55L2766.5 540.006H2720.79C2697.94 540.006 2676.05 535.499 2655.77 526.807C2635.49 518.116 2617.78 506.205 2602.65 491.076C2587.52 475.946 2575.61 458.242 2566.92 437.962C2558.23 417.682 2553.72 396.114 2553.72 372.937C2553.72 350.081 2558.23 328.192 2566.92 307.912C2575.61 287.632 2587.52 269.927 2602.65 254.797C2617.78 239.668 2635.49 227.757 2655.77 219.066C2676.05 210.375 2697.61 205.868 2720.79 205.868C2743.65 205.868 2765.54 210.375 2785.82 219.066C2806.1 227.757 2823.8 239.668 2838.93 254.797C2854.06 269.927 2865.97 287.632 2874.66 307.912C2883.35 328.192 2887.86 350.081 2887.86 372.937V413.497H2744.29L2661.24 331.089Z" fill="#21254F"/>
<path d="M3185.62 207.477L3002.78 539.683L2868.22 270.571L2929.71 209.087L3006 361.992L3090.66 207.477H3185.62Z" fill="#21254F"/>
<path d="M79.5106 141.316L79.8325 652.824L0 606.791V187.027L79.5106 141.316Z" fill="url(#paint0_linear)"/>
<path d="M245.614 136.488V201.191V748.43L162.562 700.466V93.3525L323.837 0L647.995 187.027V561.403L323.837 748.43V653.789L566.553 513.761V232.416L323.193 91.743L245.614 136.488Z" fill="url(#paint1_linear)"/>
<defs>
<linearGradient id="paint0_linear" x1="-3.64206e-06" y1="141" x2="80" y2="653" gradientUnits="userSpaceOnUse">
<stop offset="0.765625" stop-color="#A5167E"/>
<stop offset="1" stop-color="#21254F"/>
</linearGradient>
<linearGradient id="paint1_linear" x1="310.781" y1="241.911" x2="486.003" y2="513.325" gradientUnits="userSpaceOnUse">
<stop stop-color="#A5167E"/>
<stop offset="1" stop-color="#21254F"/>
</linearGradient>
</defs>
</svg>
