<svg width="2377" height="367" viewBox="0 0 2377 367" fill="none" xmlns="http://www.w3.org/2000/svg">
<path d="M82.08 34.2881V366.495H0V115.73L82.08 34.2881Z" fill="#A5167E"/>
<path d="M263.32 366.494C240.46 366.494 218.89 361.988 198.61 353.296C178.65 344.605 160.95 332.694 145.82 317.565C130.69 302.435 118.78 285.052 110.09 264.772C101.4 244.814 96.89 223.246 96.89 200.069C96.89 177.214 101.4 155.324 110.09 135.044C118.78 114.764 130.69 97.0592 145.82 81.9296C160.95 66.8001 178.33 54.8896 198.61 46.1981C218.57 37.5067 240.14 33 263.32 33C285.85 33 307.09 37.1848 327.37 45.5543C347.65 53.9239 365.68 66.1563 381.45 81.9296L323.19 140.195C315.14 132.147 306.13 126.031 295.83 122.168C285.53 118.305 274.9 116.052 263.32 116.052C251.73 116.052 241.1 118.305 230.8 122.812C220.5 127.318 211.49 133.113 204.09 140.517C196.36 147.921 190.57 156.934 186.06 167.235C181.55 177.536 179.3 188.481 179.3 200.069C179.3 211.658 181.55 222.603 186.06 232.904C190.57 243.205 196.36 251.896 204.09 259.622C211.81 267.026 220.5 273.142 230.8 277.327C241.1 281.833 251.73 284.086 263.32 284.086C274.9 284.086 285.53 281.833 295.83 277.648C306.13 273.464 315.14 267.347 323.19 259.3L381.45 317.565C365.68 333.338 347.65 345.57 327.37 353.94C307.09 362.309 285.53 366.494 263.32 366.494Z" fill="#A5167E"/>
<path d="M521.81 366.494C498.95 366.494 477.38 361.988 457.1 353.296C437.14 344.605 419.44 332.694 404.31 317.565C389.18 302.435 377.27 285.052 368.58 264.772C359.89 244.814 355.38 223.247 355.38 200.069C355.38 177.536 359.89 155.968 368.58 135.688C377.27 115.408 389.18 97.7031 404.31 82.8954C419.44 67.7659 436.82 55.8554 457.1 47.164C477.06 38.4725 498.63 33.9658 521.81 33.9658C544.66 33.9658 565.91 38.4725 586.19 47.164C606.47 55.8554 624.17 67.7659 638.98 82.8954C654.11 98.025 666.02 115.73 674.71 135.688C683.4 155.968 687.91 177.214 687.91 200.069C687.91 222.925 683.4 244.492 674.71 264.772C666.02 284.73 654.11 302.435 638.98 317.565C623.85 332.694 606.14 344.605 586.19 353.296C565.91 362.31 544.66 366.494 521.81 366.494ZM521.81 117.339C510.22 117.339 499.27 119.593 488.97 124.099C478.67 128.606 469.98 134.401 462.25 141.804C454.53 149.208 448.73 158.222 444.55 168.201C440.04 178.18 437.79 189.125 437.79 200.391C437.79 211.98 440.04 222.925 444.55 233.226C449.05 243.527 454.85 252.218 462.25 259.944C469.66 267.348 478.67 273.464 488.97 277.649C499.27 282.155 510.22 284.409 521.81 284.409C533.07 284.409 544.02 282.155 554 277.649C563.98 273.142 572.99 267.348 580.39 259.944C587.8 252.54 593.91 243.527 598.1 233.226C602.6 222.925 604.86 211.98 604.86 200.391C604.86 189.125 602.6 178.18 598.1 168.201C593.59 158.222 587.8 149.208 580.39 141.804C572.99 134.401 563.98 128.284 554 124.099C544.02 119.593 533.39 117.339 521.81 117.339Z" fill="#A5167E"/>
<path d="M1006.6 366.495H925.15V187.837C925.15 177.858 923.22 168.523 919.68 159.832C915.82 151.14 910.67 143.736 904.23 137.298C897.79 130.86 890.07 126.031 881.37 122.168C872.68 118.305 863.35 116.696 853.69 116.696C843.71 116.696 834.38 118.627 825.68 122.168C816.99 126.031 809.27 130.86 802.51 137.298C795.75 143.736 790.6 151.14 787.06 159.832C783.19 168.523 781.58 177.858 781.58 187.837V366.495H700.14V187.837C700.14 166.913 704 146.955 712.05 128.285C720.1 109.614 731.04 93.1968 745.21 79.3548C759.05 65.5129 775.47 54.2462 794.14 46.1986C812.81 38.151 832.77 34.2881 854.01 34.2881C874.94 34.2881 894.89 38.151 913.56 46.1986C932.23 54.2462 948.33 65.191 962.17 79.3548C976.01 93.1968 986.64 109.614 994.68 128.285C1002.73 146.955 1006.6 166.913 1006.6 187.837V366.495Z" fill="#A5167E"/>
<path d="M1103.49 34.2881V366.495H1021.4V115.73L1103.49 34.2881Z" fill="#A5167E"/>
<path d="M1284.72 366.494C1261.87 366.494 1240.3 361.988 1220.02 353.296C1200.06 344.605 1182.35 332.694 1167.23 317.565C1152.1 302.435 1140.19 285.052 1131.49 264.772C1122.8 244.814 1118.3 223.246 1118.3 200.069C1118.3 177.214 1122.8 155.324 1131.49 135.044C1140.19 114.764 1152.1 97.0592 1167.23 81.9296C1182.35 66.8001 1199.74 54.8896 1220.02 46.1981C1239.98 37.5067 1261.54 33 1284.72 33C1307.25 33 1328.5 37.1848 1348.78 45.5543C1369.06 53.9239 1387.09 66.1563 1402.86 81.9296L1344.59 140.839C1336.55 132.791 1327.53 126.674 1317.23 122.812C1306.93 118.949 1296.31 116.695 1284.72 116.695C1273.45 116.695 1262.51 118.949 1252.21 123.455C1241.91 127.962 1232.89 133.757 1225.49 141.161C1217.76 148.564 1211.97 157.578 1207.46 167.879C1202.96 178.18 1200.7 189.124 1200.7 200.713C1200.7 212.302 1202.96 223.246 1207.46 233.547C1211.97 243.848 1217.76 252.54 1225.49 260.266C1233.22 267.669 1241.91 273.786 1252.21 277.97C1262.51 282.477 1273.13 284.73 1284.72 284.73C1295.99 284.73 1306.93 282.477 1317.23 278.292C1327.53 274.107 1336.55 267.991 1344.59 259.944L1402.86 318.208C1387.09 333.982 1369.06 346.214 1348.78 354.584C1328.5 362.309 1306.93 366.494 1284.72 366.494Z" fill="#A5167E"/>
<path d="M1734.42 0V200.225C1734.42 223.08 1729.92 244.648 1721.22 264.928C1712.53 284.886 1700.62 302.591 1685.81 317.398C1671.01 332.206 1653.3 344.116 1633.02 352.808C1612.74 361.499 1591.17 365.684 1568.32 365.684C1545.46 365.684 1523.9 361.499 1503.62 352.808C1483.66 344.116 1465.95 332.528 1451.15 317.398C1436.34 302.591 1424.43 284.886 1415.74 264.928C1407.04 244.97 1402.86 223.402 1402.86 200.225C1402.86 177.692 1407.04 156.124 1415.74 135.844C1424.43 115.564 1436.02 97.859 1451.15 83.051C1465.95 67.922 1483.66 56.011 1503.62 47.32C1523.57 38.628 1545.14 34.122 1568.32 34.122L1651.37 116.208H1568.32C1557.05 116.208 1546.11 118.461 1536.13 122.968C1526.15 127.474 1517.14 133.269 1509.73 140.672C1502.33 148.076 1496.21 157.09 1492.03 167.39C1487.52 177.691 1485.27 188.636 1485.27 200.225C1485.27 211.492 1487.52 222.436 1492.03 232.415C1496.53 242.394 1502.33 251.408 1509.73 258.812C1517.14 266.215 1525.83 272.332 1536.13 276.516C1546.11 281.023 1557.05 283.276 1568.32 283.276C1579.91 283.276 1590.85 281.023 1601.15 276.516C1611.45 272.01 1620.15 266.215 1627.87 258.812C1635.28 251.408 1641.39 242.716 1645.58 232.415C1650.08 222.436 1652.34 211.492 1652.34 200.225V0H1734.42Z" fill="#21254F"/>
<path d="M1852.24 157.089H1985.19C1978.1 144.213 1967.8 133.59 1954.93 125.864C1942.05 118.138 1927.89 113.954 1911.79 113.954C1900.2 113.954 1889.26 116.207 1878.96 120.714C1868.66 125.22 1859.64 131.337 1851.92 139.062C1844.19 146.788 1838.08 155.801 1833.57 166.102C1829.06 176.403 1826.81 187.348 1826.81 198.937C1826.81 210.525 1829.06 221.47 1833.57 231.771C1838.08 242.072 1844.19 251.085 1851.92 258.811C1859.64 266.537 1868.66 272.653 1878.96 277.16C1889.26 281.666 1900.2 283.92 1911.79 283.92H2040.55L1957.5 366.006H1911.79C1888.94 366.006 1867.05 361.499 1846.77 352.807C1826.49 344.116 1808.78 332.205 1793.65 317.076C1778.52 301.946 1766.61 284.242 1757.92 263.962C1749.23 243.682 1744.72 222.114 1744.72 198.937C1744.72 176.081 1749.23 154.192 1757.92 133.912C1766.61 113.632 1778.52 95.9269 1793.65 80.7969C1808.78 65.6679 1826.49 53.7569 1846.77 45.0659C1867.05 36.3749 1888.61 31.8679 1911.79 31.8679C1934.65 31.8679 1956.54 36.3749 1976.82 45.0659C1997.1 53.7569 2014.8 65.6679 2029.93 80.7969C2045.06 95.9269 2056.97 113.632 2065.66 133.912C2074.35 154.192 2078.86 176.081 2078.86 198.937V239.497H1935.29L1852.24 157.089Z" fill="#21254F"/>
<path d="M2376.62 33.4771L2193.78 365.683L2059.22 96.571L2120.71 35.087L2197 187.992L2281.66 33.4771H2376.62Z" fill="#21254F"/>
</svg>
