<svg width="267" height="267" viewBox="0 0 267 267" fill="none" xmlns="http://www.w3.org/2000/svg">
<rect width="267" height="267" fill="#B4D0E8"/>
<path d="M183 120.639C182.998 128.325 180.237 135.759 175.213 141.605C170.188 147.452 163.23 151.328 155.587 152.538C155.218 152.621 154.849 152.698 154.468 152.762C153.175 152.884 151.816 152.968 150.478 153C149.98 153 149.488 153 148.99 153C140.359 152.996 131.841 151.045 124.079 147.296C116.317 143.547 109.514 138.097 104.181 131.357C98.8491 124.616 95.1275 116.762 93.297 108.385C91.4665 100.009 91.5749 91.3289 93.6141 83C93.6529 83.7 93.7046 84.3936 93.7693 85.0872C93.7693 85.2028 93.7693 85.3248 93.7693 85.4468L93.8081 85.8193C93.8533 86.2624 93.9051 86.7055 93.9633 87.1422C93.9633 87.2963 94.0085 87.444 94.0279 87.5917C94.0473 87.7394 94.0279 87.8037 94.0732 87.9128C94.1249 88.2982 94.1896 88.6899 94.2543 89.0752V89.178C94.2543 89.3642 94.3125 89.544 94.3448 89.7239C94.3772 89.9037 94.3901 89.9486 94.4095 90.0578C94.4289 90.167 94.4742 90.4367 94.513 90.6229C94.5518 90.8092 94.61 91.0982 94.6617 91.3358C94.7134 91.5734 94.7522 91.7853 94.804 92.0101C94.8557 92.2349 94.901 92.4404 94.9527 92.6523C95.0044 92.8642 95.0885 93.2367 95.1596 93.5257C95.2049 93.6927 95.2437 93.8596 95.289 94.0266C95.3343 94.1936 95.3925 94.4183 95.4507 94.6174C95.5089 94.8165 95.5412 94.9642 95.5929 95.1376C95.6447 95.311 95.6964 95.5101 95.7546 95.6899L95.7934 95.8312L95.968 96.4092C96.0672 96.7303 96.1706 97.0514 96.2784 97.3725L96.4336 97.8477C96.4983 98.0339 96.5565 98.2138 96.6212 98.3872C96.6858 98.5605 96.7311 98.6954 96.7828 98.8431L96.9704 99.3569C97.0351 99.5303 97.0997 99.7101 97.1709 99.8835C97.242 100.057 97.3196 100.275 97.3972 100.474C97.6559 101.117 97.9275 101.759 98.2056 102.401C98.2702 102.555 98.3414 102.709 98.4061 102.857L98.6001 103.281C98.7553 103.615 98.9105 103.923 99.0721 104.276C99.1627 104.469 99.2532 104.655 99.3502 104.841L99.5636 105.272C99.7964 105.734 100.036 106.183 100.281 106.639L100.514 107.057L100.941 107.821L101.226 108.296C101.79 109.195 102.357 110.088 102.926 110.974C103.017 111.109 103.108 111.25 103.205 111.385C105.312 114.473 107.721 117.347 110.396 119.965C110.551 120.126 110.713 120.28 110.874 120.434C111.172 120.723 111.469 121.005 111.78 121.282L111.851 121.352C120.994 129.768 132.673 134.959 145.084 136.123C146.869 136.29 148.678 136.373 150.51 136.373C151.002 136.373 151.5 136.373 151.991 136.373C153.336 136.343 154.668 136.264 155.988 136.136C156.363 136.072 156.738 135.994 157.106 135.911C162.818 135.005 168.184 132.605 172.652 128.957C177.12 125.309 180.529 120.545 182.528 115.155C182.842 116.967 183 118.801 183 120.639V120.639Z" fill="url(#paint0_linear)"/>
<path d="M150.955 39L150.203 39.2132L149.317 39.4844C146.397 40.3852 143.546 41.497 140.786 42.811C140.143 43.1081 139.533 43.4181 138.916 43.7346C135.426 45.528 132.097 47.6221 128.966 49.9936C119.728 56.9954 112.263 66.3807 108.281 77.1224C108.178 77.4002 108.081 77.6714 107.985 77.9492C106.18 83.0776 105.253 88.4764 105.242 93.9164C105.228 103.374 107.569 112.685 112.051 121L111.981 120.929C111.672 120.651 111.377 120.367 111.081 120.076C110.921 119.921 110.76 119.766 110.606 119.605C107.947 116.957 105.554 114.051 103.463 110.93C103.366 110.794 103.276 110.652 103.186 110.517C102.617 109.655 102.071 108.771 101.548 107.862L101.266 107.384L100.842 106.615L100.61 106.195C100.373 105.743 100.135 105.291 99.9101 104.839L99.6981 104.406C99.6017 104.219 99.5118 104.032 99.4218 103.838C99.2612 103.508 99.1071 103.192 98.9529 102.837L98.7602 102.41C98.6959 102.262 98.6253 102.107 98.561 101.952C98.2848 101.306 98.015 100.66 97.758 100.014C97.6809 99.8137 97.6039 99.6199 97.5332 99.4197C97.4625 99.2195 97.3983 99.0644 97.334 98.89L97.1478 98.3733C97.0964 98.2247 97.0385 98.0697 96.9872 97.9147C96.9358 97.7597 96.8651 97.5594 96.8009 97.3721L96.6467 96.8941C96.5396 96.5712 96.4368 96.2482 96.3383 95.9252L96.1649 95.3439L96.1263 95.2018C96.0685 95.021 96.0171 94.8336 95.9657 94.6463C95.9144 94.459 95.8694 94.304 95.8244 94.1231C95.7794 93.9423 95.7152 93.7291 95.6638 93.5289C95.6124 93.3286 95.5803 93.193 95.5353 93.0251C95.4647 92.7344 95.394 92.4437 95.3298 92.1466C95.2655 91.8495 95.227 91.7203 95.182 91.5007C95.137 91.2811 95.0857 91.0485 95.0407 90.8224C94.9957 90.5964 94.9379 90.3445 94.8929 90.1055C94.848 89.8665 94.8223 89.7308 94.7902 89.5371C94.758 89.3433 94.7452 89.3175 94.7259 89.2012C94.7066 89.0849 94.6617 88.8395 94.636 88.6522V88.5488C94.5717 88.1613 94.5075 87.7672 94.4561 87.3797C94.4561 87.2699 94.424 87.1665 94.4111 87.0567C94.3983 86.9469 94.3726 86.7596 94.3469 86.6046C94.2891 86.1653 94.2377 85.7197 94.1927 85.274L94.1542 84.8993C94.1542 84.7766 94.1542 84.6539 94.1542 84.5376C94.0899 83.84 94.0385 83.1424 94 82.4384C97.212 69.0484 106.469 57.4993 118.411 49.6836C128.131 43.2643 139.384 39.5818 151 39.0194L150.955 39Z" fill="url(#paint1_linear)"/>
<path d="M155.604 87.6889C154.773 87.8467 153.93 87.9356 153.084 87.9546H153.441C154.227 87.9546 155 87.9157 155.767 87.8445L155.604 87.6889ZM152.649 87.9482C151.51 87.9098 150.375 87.7951 149.252 87.6046C150.369 87.8419 151.507 87.9614 152.649 87.9611V87.9611V87.9482ZM177.98 62.9037C177.98 62.7222 177.98 62.5472 177.98 62.3657V61.9833C177.98 61.8667 177.98 61.7565 177.98 61.6398C177.98 61.5232 177.98 61.2704 177.935 61.0824C177.889 60.8945 177.935 60.8037 177.889 60.6611C177.893 60.6353 177.893 60.6092 177.889 60.5833C177.889 60.4343 177.85 60.2852 177.831 60.1426C177.831 60.0648 177.831 59.987 177.831 59.9157C177.785 59.6111 177.74 59.313 177.682 59.0213L177.643 58.8009C177.643 58.6843 177.597 58.5741 177.571 58.4574C177.545 58.3407 177.539 58.2954 177.519 58.2176C177.5 58.1398 177.519 58.0491 177.467 57.9713L177.428 57.7963C177.396 57.6602 177.363 57.5241 177.324 57.3815L177.266 57.1676C177.201 56.9213 177.136 56.675 177.058 56.4352L176.98 56.1759C176.928 56.0074 176.87 55.8324 176.811 55.6574L176.714 55.3593L176.616 55.0935C176.532 54.8602 176.441 54.6269 176.35 54.3935C176.311 54.2963 176.266 54.1926 176.227 54.0889C176.188 53.9852 176.149 53.9009 176.103 53.8102L175.954 53.4667C175.954 53.4667 175.908 53.3695 175.889 53.3241L175.811 53.1556L175.655 52.825L175.441 52.4037C175.265 52.0472 175.077 51.7037 174.882 51.3667L174.765 51.1657C174.707 51.062 174.648 50.9583 174.583 50.8546L174.324 50.4333L174.103 50.0898L173.804 49.6491C173.694 49.4806 173.577 49.3185 173.453 49.1565C173.454 49.1414 173.454 49.1262 173.453 49.1111L173.336 48.9556L173.148 48.7028L172.979 48.4824C172.836 48.3009 172.693 48.1194 172.537 47.938C172.381 47.7565 172.375 47.7306 172.284 47.6333L172.148 47.4713L171.836 47.1213L171.706 46.9787L171.583 46.8426L171.394 46.6482L171.212 46.4602C171.155 46.3944 171.094 46.3316 171.03 46.2722V46.2722L170.901 46.1491C170.861 46.1027 170.817 46.0594 170.771 46.0194L170.511 45.7667C170.322 45.5852 170.121 45.4037 169.92 45.2222L169.705 45.0343L169.296 44.7426L169.056 44.5417L168.971 44.4769C168.894 44.412 168.816 44.3407 168.731 44.2824C168.543 44.1268 168.354 43.9843 168.16 43.8352L167.828 43.5954C167.75 43.5306 167.666 43.4722 167.582 43.4139L167.419 43.3037L167.341 43.2519C167.25 43.1806 167.153 43.1222 167.055 43.0574L166.724 42.837C166.594 42.7528 166.464 42.6685 166.328 42.5907L166.055 42.4222H166.01L165.795 42.2926L165.737 42.2602L165.49 42.1176L165.263 41.9944L165.042 41.8778C164.847 41.7676 164.646 41.6639 164.451 41.5667L163.957 41.3268L163.704 41.2102C163.477 41.1 163.243 41.0028 163.009 40.9056L162.431 40.6657L162.087 40.5361L161.567 40.3481L161.093 40.1861H161.047L160.794 40.1083L160.541 40.0306L159.807 39.8232L159.547 39.7519L159.333 39.7L159.196 39.6676L159.008 39.6222C158.729 39.5574 158.443 39.4926 158.157 39.4407L157.865 39.3889L157.475 39.3241L156.916 39.2398C155.748 39.0975 154.573 39.0175 153.396 39H152.688H152.084H151.941H151.59L151.233 39.0324H150.941L150.512 39.0843H150.298L149.915 39.1361H149.707C149.583 39.1361 149.46 39.175 149.343 39.1944L149.077 39.2398L148.791 39.2917L148.499 39.35L148.213 39.4148L147.992 39.4602C147.68 39.5315 147.342 39.6093 147.057 39.6935C146.901 39.7389 146.738 39.7778 146.583 39.8296L146.316 39.9074L145.939 40.0241L145.55 40.1537L145.303 40.2444C145.154 40.2898 145.011 40.3482 144.868 40.4L144.335 40.6074C144.27 40.6074 144.212 40.6593 144.147 40.6852C143.9 40.7824 143.66 40.8926 143.419 40.9963L143.257 41.0741C142.945 41.2167 142.607 41.3657 142.322 41.5278L142.01 41.6898L141.568 41.9296C141.315 42.0657 141.068 42.2148 140.821 42.3639C140.574 42.513 140.516 42.5519 140.367 42.6491C140.217 42.7463 140.178 42.7657 140.087 42.8241C139.996 42.8824 139.873 42.9602 139.769 43.038C139.522 43.2 139.275 43.375 139.035 43.55L138.769 43.7509L138.502 43.9519L138.087 44.2824C137.937 44.3991 137.795 44.5157 137.658 44.6389C137.372 44.8809 137.093 45.1272 136.82 45.3778L136.418 45.7537C136.288 45.8833 136.158 46.0194 136.021 46.1491C135.762 46.4083 135.508 46.6806 135.261 46.9593L134.891 47.3741C134.651 47.6528 134.417 47.9444 134.19 48.2296L133.845 48.6769C133.735 48.8259 133.625 48.9685 133.521 49.1241C133.417 49.2796 133.306 49.4287 133.202 49.5778L132.891 50.0444C132.813 50.1676 132.735 50.2907 132.663 50.4139C132.636 50.4481 132.612 50.485 132.592 50.5241C132.423 50.7963 132.254 51.075 132.098 51.3667L131.91 51.7037C131.838 51.8269 131.773 51.9565 131.708 52.0861C131.572 52.3454 131.436 52.6111 131.312 52.8769L131.176 53.175C131.115 53.2917 131.063 53.4083 131.02 53.525C130.949 53.6806 130.877 53.8426 130.812 54.0111L130.598 54.5361C130.601 54.5489 130.601 54.5622 130.598 54.575C130.533 54.737 130.474 54.8991 130.416 55.0676C130.357 55.2361 130.345 55.2685 130.312 55.3722C130.29 55.4274 130.27 55.4836 130.254 55.5407V55.5407C130.233 55.5872 130.216 55.6348 130.202 55.6833C130.202 55.7676 130.143 55.8583 130.117 55.9426V55.9815C130.117 56.0657 130.072 56.1435 130.046 56.2213C130.02 56.2991 129.955 56.513 129.916 56.662C129.877 56.8111 129.812 57.0315 129.766 57.213C129.721 57.3945 129.695 57.5046 129.663 57.6472C129.663 57.7444 129.611 57.8417 129.591 57.9389C129.487 58.3991 129.396 58.8657 129.325 59.3389C129.31 59.4074 129.299 59.4766 129.292 59.5463C129.292 59.5463 129.292 59.5917 129.292 59.6111L129.234 60.0259L129.175 60.5056C129.175 60.7324 129.13 60.9593 129.11 61.1537C129.045 61.8472 129.019 62.5537 129.019 63.2602C129.019 63.4222 129.019 63.5843 129.019 63.7463V63.8889C129.019 64.0509 129.019 64.2194 129.019 64.388C129.019 64.6861 129.019 64.9972 129.078 65.2954C129.078 65.412 129.078 65.5287 129.078 65.6454C129.078 65.762 129.078 65.8009 129.078 65.8787C129.078 65.9565 129.078 66.0991 129.117 66.2028C129.156 66.3065 129.117 66.4685 129.169 66.6046C129.221 66.7407 129.208 66.9222 129.234 67.0778V67.2009L129.292 67.5315C129.288 67.5768 129.288 67.6223 129.292 67.6676C129.3 67.7265 129.311 67.7849 129.325 67.8426C129.325 67.9593 129.37 68.0759 129.39 68.1861C129.392 68.2293 129.392 68.2726 129.39 68.3157L129.468 68.6657C129.468 68.763 129.513 68.8667 129.539 68.9639C129.6 69.2188 129.665 69.4716 129.734 69.7222C129.734 69.787 129.766 69.8519 129.786 69.9167C129.805 69.9815 129.786 70.0463 129.844 70.1111C129.903 70.1759 129.909 70.3509 129.948 70.4676C129.987 70.5843 130.007 70.6491 130.033 70.7398L130.15 71.0833L130.345 71.6472C130.422 71.8611 130.5 72.075 130.591 72.2954L130.669 72.5028C130.778 72.7707 130.894 73.0364 131.02 73.3L131.098 73.4815C131.234 73.7796 131.377 74.0778 131.527 74.3695C131.618 74.5445 131.708 74.7195 131.806 74.8945C131.903 75.0695 131.994 75.238 132.092 75.4065C132.189 75.575 132.293 75.75 132.39 75.9185C132.488 76.087 132.592 76.2491 132.702 76.4176C132.813 76.5861 132.91 76.7482 133.021 76.9102L133.189 77.15C133.241 77.2343 133.3 77.312 133.358 77.3898C133.417 77.4676 133.527 77.6296 133.618 77.7463C133.709 77.863 133.767 77.9537 133.845 78.0509C133.866 78.0859 133.889 78.1185 133.917 78.1481C133.988 78.2519 134.073 78.3491 134.151 78.4463L134.423 78.7898C134.924 79.3926 135.443 79.9759 135.995 80.5269L136.19 80.7213L136.469 80.9935L136.762 81.2658L137.054 81.5315L137.223 81.6806L137.392 81.8296L137.502 81.9204L137.82 82.1926L138.373 82.6269L138.606 82.8083L138.899 83.0287L139.107 83.1778L139.295 83.3139L139.49 83.45L139.607 83.5278L139.964 83.7611L140.269 83.9621L140.698 84.2278L141.081 84.4546L141.302 84.5843L141.607 84.7528L141.919 84.9213L142.205 85.0704C142.478 85.213 142.75 85.3491 143.03 85.4722L143.432 85.6602L143.835 85.8352L144.101 85.9454C144.565 86.1312 145.032 86.3062 145.504 86.4704L145.985 86.6259L146.394 86.7556L146.699 86.8463L147.011 86.9306L147.148 86.963C147.797 87.1445 148.518 87.2935 149.22 87.4167C148.875 87.3454 148.531 87.2546 148.2 87.1639L147.719 87.0213L147.206 86.8528L146.557 86.6065L146.121 86.425L145.92 86.3343L145.615 86.1917L145.115 85.9454L144.848 85.8028L144.686 85.712C144.29 85.4917 143.894 85.2454 143.517 84.9926L143.341 84.8759L143.153 84.7463L142.926 84.5778C142.757 84.4481 142.588 84.325 142.426 84.1889C142.263 84.0528 142.27 84.0593 142.192 83.9944C142.016 83.8519 141.848 83.7028 141.679 83.5537L141.185 83.087L140.919 82.8213L140.659 82.5426C140.587 82.4713 140.522 82.3935 140.458 82.3157L140.315 82.1602C140.25 82.0824 140.178 82.0046 140.113 81.9204L139.879 81.6287C139.678 81.3759 139.477 81.1102 139.288 80.838L139.184 80.6824L138.97 80.3583C138.899 80.2482 138.827 80.138 138.762 80.0278C138.698 79.9322 138.639 79.8326 138.587 79.7296C138.562 79.6951 138.54 79.6582 138.522 79.6194C138.483 79.5546 138.444 79.4898 138.412 79.425L138.373 79.3602L138.171 78.9778C138.113 78.8611 138.048 78.738 137.989 78.6148L137.95 78.5306C137.898 78.4269 137.853 78.3296 137.807 78.2194C137.775 78.1564 137.747 78.0915 137.723 78.025C137.658 77.8824 137.593 77.7333 137.535 77.5843L137.437 77.3315L137.379 77.1694L137.32 77.0139L137.203 76.6704C137.203 76.5926 137.151 76.5213 137.132 76.4435L137.015 76.0482C137.015 75.9445 136.957 75.8472 136.931 75.75C136.905 75.6528 136.879 75.5491 136.859 75.4519C136.755 75.05 136.677 74.6417 136.612 74.2333C136.612 74.1296 136.573 74.0259 136.56 73.9222L136.521 73.6176C136.502 73.5017 136.489 73.3849 136.482 73.2676C136.476 73.1986 136.476 73.1292 136.482 73.0602V72.8528C136.482 72.7167 136.482 72.5806 136.482 72.438C136.482 72.2954 136.482 72.2565 136.482 72.1722C136.482 71.9843 136.482 71.7898 136.482 71.6019C136.506 67.8253 137.851 64.1757 140.284 61.2833C142.718 58.391 146.087 56.4378 149.811 55.7611C149.941 55.7287 150.077 55.7093 150.207 55.6898L150.519 55.6509H150.713H150.928L151.259 55.6185H151.48H151.831H152.045H152.292H152.662C152.98 55.6185 153.312 55.6185 153.604 55.6185H153.916H154.104C154.299 55.6185 154.494 55.638 154.689 55.6769L155.117 55.7352C155.338 55.7676 155.559 55.8065 155.767 55.8519L155.981 55.8972L156.41 55.988L156.735 56.0722L157.053 56.1565L157.293 56.2213L157.644 56.3315C157.761 56.3704 157.878 56.4028 157.988 56.4481C158.099 56.4935 158.397 56.5907 158.599 56.675L158.722 56.7204L158.91 56.7982L159.099 56.8824L159.287 56.9602L159.612 57.1093L160.229 57.4139L160.365 57.4917L160.502 57.563L160.638 57.6407L160.917 57.8028C161.021 57.8611 161.132 57.9259 161.236 57.9972L161.444 58.1204L161.729 58.3148L161.996 58.4963L162.509 58.8722L162.762 59.0667L163.015 59.2676L163.256 59.475L163.496 59.6824C163.658 59.825 163.808 59.9741 163.964 60.1167C164.12 60.2593 164.12 60.2657 164.191 60.3435L164.308 60.4602C164.326 60.4718 164.342 60.4873 164.353 60.5056L164.386 60.5445L164.522 60.687L164.691 60.862C164.73 60.9074 164.769 60.9463 164.802 60.9917L164.931 61.1343L165.055 61.2769L165.269 61.5296L165.581 61.9315L165.73 62.1259L165.873 62.3204L166.153 62.7222L166.269 62.9037C166.373 63.0528 166.471 63.2083 166.562 63.3639L166.672 63.5454L166.848 63.85C166.932 63.9926 167.003 64.1352 167.081 64.2778C167.159 64.4204 167.185 64.4722 167.231 64.5759L167.302 64.7185C167.354 64.8222 167.406 64.9324 167.452 65.0361C167.497 65.1398 167.549 65.2435 167.588 65.3407C167.627 65.438 167.685 65.5611 167.724 65.6713C167.861 66.0019 167.984 66.3194 168.095 66.6759L168.153 66.8574C168.205 67.013 168.251 67.1685 168.296 67.3241C168.296 67.3824 168.328 67.4407 168.341 67.4926C168.354 67.5445 168.341 67.6093 168.393 67.6676C168.445 67.7259 168.452 67.9009 168.478 68.0176C168.504 68.1343 168.517 68.1732 168.53 68.2574C168.543 68.3417 168.53 68.3417 168.562 68.387C168.595 68.4324 168.562 68.4713 168.562 68.5167C168.562 68.562 168.562 68.6787 168.608 68.763C168.653 68.8472 168.653 69.0093 168.673 69.1324C168.718 69.3787 168.751 69.625 168.783 69.8713L168.822 70.2472C168.868 70.7528 168.894 71.2648 168.894 71.7769C168.892 72.4463 168.851 73.1151 168.77 73.7796C168.371 76.9769 167.028 79.9834 164.911 82.4164C162.794 84.8495 160 86.5991 156.884 87.4426C156.455 87.5593 156.027 87.6565 155.585 87.7343C154.754 87.892 153.911 87.9809 153.065 88H153.422C154.208 88 154.981 87.9611 155.747 87.8898L156.397 87.8185H156.455L156.786 87.7732H156.988L157.936 87.6111L158.144 87.5722C158.475 87.5074 158.794 87.4426 159.118 87.3648L159.443 87.2806L159.794 87.1963L160.196 87.0796L160.43 87.0148C160.671 86.9435 160.917 86.8657 161.158 86.7815L161.411 86.6972L161.788 86.5676L161.976 86.4963C162.275 86.3861 162.58 86.2694 162.879 86.1398L163.113 86.0426L163.347 85.9389L163.639 85.8093L164.016 85.6343L164.386 85.4528L164.581 85.3491L164.873 85.2C165.068 85.0963 165.256 84.9991 165.445 84.8889L165.821 84.675L166.192 84.4546L166.523 84.2472H166.562C166.635 84.208 166.704 84.1624 166.77 84.1111H166.802L167.088 83.9296L167.465 83.6639L167.517 83.6315L167.809 83.4241L168.205 83.1324C168.673 82.7759 169.134 82.4065 169.576 82.0176L169.959 81.6741L170.361 81.3046L170.725 80.9481L170.985 80.6824L171.141 80.5269L171.186 80.4815L171.453 80.1898C171.725 79.9046 171.985 79.613 172.232 79.3148L172.479 79.0102C172.557 78.913 172.635 78.8222 172.706 78.725C172.778 78.6278 172.869 78.5241 172.947 78.4204L173.031 78.3102L173.226 78.0509C173.479 77.7009 173.719 77.3574 173.96 76.9944C174.116 76.7482 174.278 76.5019 174.427 76.2491L174.505 76.1259L174.583 75.9963L174.973 75.3028L175.116 75.0435C175.125 75.0213 175.136 74.9996 175.148 74.9787C175.2 74.875 175.259 74.7778 175.311 74.6676C175.31 74.646 175.31 74.6244 175.311 74.6028L175.467 74.2787C175.506 74.2074 175.538 74.1296 175.577 74.0583C175.616 73.987 175.72 73.7537 175.785 73.5982C175.85 73.4426 175.921 73.3 175.98 73.1509C176.038 73.0019 176.103 72.8657 176.162 72.7167L176.337 72.2565C176.337 72.1852 176.396 72.1139 176.421 72.0426L176.558 71.6602L176.636 71.4204C176.681 71.2972 176.72 71.1741 176.759 71.0445C176.798 70.9148 176.876 70.6815 176.928 70.5C176.98 70.3185 177.013 70.2083 177.052 70.0593C177.052 70.0009 177.052 69.9426 177.103 69.8843C177.175 69.6056 177.246 69.3204 177.311 69.0352L177.37 68.75C177.409 68.5944 177.441 68.4324 177.467 68.2769L177.545 67.8685C177.545 67.7389 177.591 67.6028 177.61 67.4667L177.669 67.0843C177.669 66.9028 177.721 66.7148 177.74 66.5269C177.743 66.488 177.743 66.449 177.74 66.4102C177.74 66.2741 177.772 66.1315 177.785 65.9954C177.798 65.8593 177.785 65.7945 177.785 65.6907C177.785 65.587 177.785 65.4898 177.785 65.3926C177.785 65.0426 177.824 64.6861 177.837 64.3296V64.1287C177.837 63.9602 177.837 63.7982 177.837 63.6296C177.837 63.4611 178.006 63.0852 178 62.8907L177.98 62.9037ZM152.649 87.9482C151.51 87.9098 150.375 87.7951 149.252 87.6046C150.369 87.8419 151.507 87.9614 152.649 87.9611V87.9611V87.9482ZM148.232 87.3519L147.752 87.2093L147.239 87.0408L146.589 86.7945L146.154 86.613L145.952 86.5222L145.647 86.3796L145.147 86.1333L144.881 85.9908L144.718 85.9C144.322 85.6796 143.926 85.4333 143.549 85.1806L143.374 85.0639L143.186 84.9343L142.958 84.7657C142.789 84.6361 142.62 84.513 142.458 84.3769C142.296 84.2407 142.302 84.2472 142.224 84.1824C142.049 84.0398 141.88 83.8908 141.711 83.7417L141.217 83.275L140.951 83.0093L140.691 82.7306C140.62 82.6593 140.555 82.5815 140.49 82.5037L140.347 82.3481C140.282 82.2704 140.211 82.1926 140.146 82.1083L139.912 81.8167C139.711 81.5639 139.509 81.2982 139.321 81.0259L139.217 80.8704L139.003 80.5463C138.931 80.4361 138.86 80.3259 138.795 80.2157C138.73 80.1201 138.672 80.0206 138.619 79.9176C138.594 79.8831 138.572 79.8462 138.554 79.8074C138.515 79.7426 138.477 79.6778 138.444 79.613L138.405 79.5482L138.204 79.1657C138.145 79.0491 138.08 78.9259 138.022 78.8028L137.983 78.7185C137.931 78.6148 137.885 78.5176 137.84 78.4074C137.808 78.3444 137.78 78.2794 137.756 78.213C137.691 78.0704 137.626 77.9213 137.567 77.7722L137.47 77.5195L137.411 77.3574L137.353 77.2019L137.236 76.8583C137.236 76.7806 137.184 76.7093 137.164 76.6315L137.048 76.2361C137.048 76.1324 136.989 76.0352 136.963 75.938C136.937 75.8407 136.911 75.737 136.892 75.6398C136.788 75.238 136.71 74.8296 136.645 74.4213C136.645 74.3176 136.606 74.2139 136.593 74.1102L136.554 73.8056C136.535 73.6897 136.522 73.5728 136.515 73.4556C136.509 73.3866 136.509 73.3171 136.515 73.2482V73.0407C136.515 72.9046 136.515 72.7685 136.515 72.6259C136.515 72.4833 136.515 72.4444 136.515 72.3602C136.515 72.1722 136.515 71.9778 136.515 71.7898C136.512 70.8469 136.593 69.9057 136.755 68.9769L129.305 61.6139L129.091 61.3935C129.026 62.087 129 62.7935 129 63.5C129 63.662 129 63.8241 129 63.9861V64.1287C129 64.2907 129 64.4593 129 64.6278C129 64.9259 129 65.237 129.058 65.5352C129.058 65.6519 129.058 65.7685 129.058 65.8852C129.058 66.0019 129.058 66.0407 129.058 66.1185C129.058 66.1963 129.058 66.3389 129.097 66.4426C129.136 66.5463 129.097 66.7083 129.149 66.8445C129.201 66.9806 129.188 67.162 129.214 67.3176V67.4407L129.273 67.7713C129.269 67.8166 129.269 67.8621 129.273 67.9074C129.28 67.9663 129.291 68.0247 129.305 68.0824C129.305 68.1991 129.351 68.3157 129.37 68.4259C129.373 68.4691 129.373 68.5124 129.37 68.5556L129.448 68.9056C129.448 69.0028 129.494 69.1065 129.52 69.2037C129.58 69.4587 129.645 69.7114 129.714 69.962C129.714 70.0269 129.747 70.0917 129.766 70.1565C129.786 70.2213 129.766 70.2861 129.825 70.3509C129.883 70.4157 129.89 70.5907 129.929 70.7074C129.968 70.8241 129.987 70.8889 130.013 70.9796L130.13 71.3231L130.325 71.887C130.403 72.1009 130.481 72.3148 130.572 72.5352L130.65 72.7426C130.758 73.0105 130.875 73.2762 131.001 73.5398L131.078 73.7213C131.215 74.0195 131.358 74.3176 131.507 74.6093C131.598 74.7843 131.689 74.9593 131.786 75.1343C131.884 75.3093 131.975 75.4778 132.072 75.6463C132.17 75.8148 132.274 75.9898 132.371 76.1583C132.468 76.3269 132.572 76.4889 132.683 76.6574C132.793 76.8259 132.891 76.988 133.001 77.15L133.17 77.3898C133.222 77.4741 133.28 77.5519 133.339 77.6296C133.397 77.7074 133.508 77.8694 133.599 77.9861C133.69 78.1028 133.748 78.1935 133.826 78.2907C133.846 78.3257 133.87 78.3583 133.897 78.388C133.969 78.4917 134.053 78.5889 134.131 78.6861L134.404 79.0296C134.904 79.6324 135.424 80.2157 135.976 80.7667L136.171 80.9611L136.45 81.2333L136.742 81.5056L137.035 81.7713L137.203 81.9204L137.372 82.0694L137.483 82.1602L137.801 82.4324L138.353 82.8667L138.587 83.0482L138.879 83.2685L139.087 83.4176L139.275 83.5537L139.47 83.6898L139.587 83.7676L139.944 84.0009L140.25 84.2019L140.678 84.4676L141.062 84.6945L141.282 84.8241L141.588 84.9926L141.899 85.1611L142.185 85.3102C142.458 85.4528 142.731 85.5889 143.01 85.712L143.413 85.9L143.816 86.075L144.082 86.1852C144.545 86.371 145.013 86.546 145.485 86.7102L145.965 86.8657L146.375 86.9954L146.68 87.0861L146.992 87.1704L147.128 87.2028C147.778 87.3843 148.499 87.5333 149.2 87.6565C148.908 87.5204 148.564 87.4426 148.232 87.3519V87.3519Z" fill="url(#paint2_linear)"/>
<path d="M169.266 73.8882C169.348 73.2098 169.389 72.5272 169.391 71.8438C169.394 67.8835 167.99 64.0535 165.434 61.0499C162.878 58.0462 159.34 56.0684 155.462 55.476L155.03 55.4164C154.833 55.3834 154.636 55.3635 154.44 55.3503H154.25H153.935C153.621 55.3503 153.28 55.3503 152.985 55.3503H152.147H151.793H151.57L151.236 55.3834H151.02H150.823L150.509 55.4297C150.378 55.4297 150.24 55.4694 150.109 55.4958C146.797 56.0876 143.746 57.6947 141.37 60.0988C138.994 62.5028 137.409 65.5872 136.829 68.9328C136.663 69.8785 136.579 70.8371 136.58 71.7975C136.575 75.5918 137.862 79.2725 140.225 82.2225C142.588 85.1725 145.883 87.2123 149.559 88C143.804 86.9931 138.586 83.9667 134.825 79.4544C131.064 74.9421 129.001 69.2338 129 63.3357C129 62.6146 129 61.8935 129.098 61.1855C130.751 56.4549 134.007 52.4668 138.291 49.9267C142.574 47.3866 147.609 46.4581 152.506 47.3055C157.402 48.153 161.844 50.7216 165.045 54.5572C168.247 58.3928 170.002 63.2482 170 68.2646C170.002 70.1636 169.755 72.0545 169.266 73.8882Z" fill="url(#paint3_linear)"/>
<path d="M174.791 96.2566C179.281 92.3484 182.617 87.2793 184.438 81.6005C186.258 75.9216 186.493 69.8504 185.116 64.0471C183.739 58.2437 180.803 52.9305 176.628 48.685C172.453 44.4396 167.199 41.4246 161.436 39.9678V39.9678C160.24 39.6663 159.028 39.4343 157.806 39.2728H157.735C157.243 39.2079 156.751 39.1559 156.253 39.1104C155.464 39.0455 154.668 39.0065 153.865 39H153.082C152.241 39 151.407 39.052 150.585 39.1234C149.763 39.1949 149.116 39.2793 148.391 39.3962C142.326 40.3655 136.658 43.0401 132.045 47.1103C127.432 51.1805 124.062 56.4796 122.326 62.3936C120.589 68.3075 120.558 74.5943 122.235 80.5255C123.912 86.4567 127.229 91.7894 131.801 95.9058C131.801 95.9058 138.272 102.466 151.86 104.057L152.177 104.096L152.934 104.174H153.102C153.244 104.174 153.38 104.174 153.522 104.174C156.581 104.198 159.571 105.091 162.144 106.752C164.718 108.412 166.769 110.77 168.061 113.554V113.625C168.638 114.865 169.051 116.175 169.291 117.522C169.291 117.522 169.291 117.522 169.291 117.522C169.455 118.464 169.537 119.418 169.537 120.374C169.538 123.428 168.674 126.42 167.046 129.001C165.418 131.581 163.093 133.644 160.342 134.949L160.142 135.047L159.818 135.19L159.572 135.294L159.255 135.417L159.009 135.515L158.686 135.625L158.382 135.729L158.071 135.826L157.748 135.917L157.573 135.963L157.411 136.008L157.075 136.086L156.732 136.158L156.382 136.229L155.988 136.294L155.677 136.339H155.483H155.263L154.939 136.372H154.719H154.364H154.124H153.878H153.089V153C153.632 153 154.176 153 154.713 152.955C161.144 152.633 167.334 150.401 172.499 146.541C177.665 142.682 181.571 137.37 183.724 131.279C185.877 125.187 186.18 118.591 184.593 112.327C183.005 106.063 179.601 100.413 174.81 96.0942L174.791 96.2566ZM138.446 78.3684C138.446 78.3684 138.446 78.3684 138.446 78.3359C137.444 76.1021 136.962 73.6684 137.037 71.2196C137.112 68.7708 137.742 66.3714 138.879 64.2036C140.016 62.0359 141.631 60.1568 143.6 58.7091C145.568 57.2615 147.84 56.2833 150.242 55.849L150.637 55.784L150.947 55.7385H151.141H151.355L151.685 55.7061H151.905H152.254H152.468H152.714H153.186C153.464 55.7061 153.742 55.7061 154.021 55.7061H154.331H154.519L155.101 55.771L155.528 55.8295C158.281 56.2527 160.877 57.3871 163.061 59.1215C165.245 60.8559 166.942 63.1305 167.986 65.7222C169.029 68.3139 169.384 71.1335 169.015 73.9043C168.645 76.675 167.564 79.3017 165.878 81.5265C164.192 83.7513 161.958 85.4977 159.397 86.5944C156.835 87.691 154.034 88.1001 151.267 87.7816C148.501 87.4631 145.864 86.4279 143.616 84.7776C141.369 83.1273 139.587 80.9186 138.446 78.3684V78.3684Z" fill="url(#paint4_linear)"/>
<path d="M177 128.714V128.817C177 129.459 176.968 130.146 176.911 130.801C176.911 130.865 176.911 130.936 176.911 131C175.791 143.201 165.304 152.833 153 153V136.568H154.203H154.444H154.646H154.995H155.21L155.527 136.536H155.742H155.932L156.236 136.491L156.622 136.426L156.964 136.356L157.3 136.285L157.629 136.208L157.971 136.118L158.288 136.028L158.592 135.932L158.889 135.829L159.206 135.72C159.288 135.695 159.369 135.662 159.446 135.624L159.757 135.502L159.997 135.399C162.417 134.342 164.537 132.688 166.164 130.587C167.791 128.486 168.874 126.006 169.312 123.372C169.434 122.441 169.508 121.504 169.534 120.565C169.534 120.527 169.534 120.604 169.534 120.565C169.097 113.271 164.804 108.063 159.909 105.905C159.005 105.53 158.073 105.227 157.122 105C162.665 105.932 167.704 108.826 171.343 113.167C174.981 117.508 176.986 123.017 177 128.714V128.714Z" fill="url(#paint5_linear)"/>
<path d="M179 63.5C179 69.598 176.682 75.4769 172.498 79.9883C168.314 84.4996 162.565 87.3193 156.375 87.8963C155.595 87.9676 154.809 88 154.017 88H153.647C154.509 87.9777 155.368 87.8889 156.216 87.7344C156.659 87.6567 157.101 87.553 157.537 87.4429C160.706 86.5987 163.546 84.8496 165.697 82.4179C167.849 79.9862 169.214 76.9819 169.62 73.7872C169.705 73.1232 169.747 72.4546 169.745 71.7854C169.75 67.9066 168.335 64.1548 165.758 61.2124C163.181 58.27 159.612 56.3325 155.701 55.7522L155.272 55.6939L154.67 55.6292H154.479H154.162C153.851 55.6292 153.501 55.6292 153.211 55.6292H152.827H152.583H152.365H152.002H151.777L151.447 55.6616H151.222H151.031L150.714 55.7004L150.311 55.7652C146.961 56.3481 143.875 57.9286 141.473 60.292C139.071 62.6553 137.47 65.6867 136.887 68.974C136.725 69.9027 136.644 70.8432 136.643 71.7854C136.644 75.4981 137.942 79.0984 140.323 81.9855C142.703 84.8727 146.021 86.8721 149.723 87.6502C143.922 86.6617 138.663 83.6974 134.872 79.2796C131.081 74.8618 129.002 69.2738 129 63.5C129 62.7939 129.033 62.0878 129.092 61.3946C129.628 55.3084 132.462 49.6378 137.04 45.4949C141.618 41.3519 147.609 39.0356 153.838 39H153.99C154.809 39 155.615 39.0389 156.421 39.1101C156.778 39.1425 157.128 39.1879 157.485 39.2397C163.452 40.0585 168.916 42.965 172.87 47.4234C176.824 51.8817 179.001 57.5914 179 63.5V63.5Z" fill="url(#paint6_radial)"/>
<path d="M144.968 136C132.594 134.824 120.95 129.579 111.834 121.076C107.335 112.724 104.986 103.371 105 93.8701C105.011 88.4055 105.942 82.9821 107.753 77.8305C107.85 77.5515 107.947 77.279 108.05 77C108.05 77.1363 108.05 77.266 108.05 77.4023C107.908 79.0244 107.837 80.6638 107.837 82.3206C107.831 94.0178 111.391 105.435 118.037 115.032C124.683 124.629 134.094 131.943 145 135.987L144.968 136Z" fill="url(#paint7_linear)"/>
<path d="M129 50C125.886 53.5357 123.566 57.7084 122.197 62.2328C117.491 65.841 113.361 70.1572 109.953 75.0305C109.302 76.0028 108.651 77.0014 108 78C108 77.862 108 77.7306 108 77.5927C112.042 66.6673 119.639 57.1215 129 50Z" fill="url(#paint8_linear)"/>
<path d="M45 218C45 213.977 48.2916 211 52.7045 211C54.8065 211 56.6996 211.633 57.9915 212.912L57.3136 213.566C56.7124 213.021 55.9986 212.595 55.2152 212.313C54.4319 212.031 53.5952 211.9 52.7557 211.926C48.9567 211.926 46.0915 214.532 46.0915 218C46.0915 221.468 48.9482 224.074 52.7557 224.074C53.5977 224.098 54.4365 223.964 55.2213 223.68C56.0061 223.396 56.7207 222.966 57.3221 222.419L58 223.068C56.7209 224.351 54.815 225 52.713 225C48.2916 225 45 222.023 45 218Z" fill="#1D71B8"/>
<path d="M70 218.834V225H69.0365V218.911C69.0365 216.528 67.8216 215.257 65.7786 215.257C63.4106 215.257 61.9635 216.853 61.9635 219.361V224.98H61V210H61.9635V216.654C62.6599 215.217 64.0451 214.368 65.914 214.368C68.3517 214.368 70 215.882 70 218.834Z" fill="#1D71B8"/>
<path d="M79 215V215.932C78.9187 215.932 78.8374 215.913 78.7561 215.913C76.4106 215.913 75.0122 217.375 75.0122 219.83V225H74V215.073H74.9715V217.237C75.622 215.798 77.0163 215 79 215Z" fill="#1D71B8"/>
<path d="M81 211.771C81 211.566 81.1054 211.37 81.2929 211.226C81.4804 211.081 81.7348 211 82 211C82.1978 211 82.3911 211.045 82.5556 211.13C82.72 211.215 82.8482 211.335 82.9239 211.476C82.9996 211.617 83.0194 211.772 82.9808 211.921C82.9422 212.071 82.847 212.208 82.7071 212.316C82.5673 212.424 82.3891 212.497 82.1951 212.527C82.0011 212.557 81.8 212.542 81.6173 212.483C81.4346 212.425 81.2784 212.326 81.1685 212.199C81.0587 212.072 81 211.923 81 211.771ZM81.4 214.978H82.64V225H81.4V214.978Z" fill="#1D71B8"/>
<path d="M85 223.735L85.4964 222.977C86.6646 223.76 88.1015 224.179 89.5762 224.167C91.9579 224.167 92.9158 223.432 92.9158 222.318C92.9158 219.451 85.4136 221.561 85.4136 217.697C85.4136 216.208 86.8418 215 89.7025 215C91.135 215 92.6981 215.379 93.5864 215.962L93.0856 216.72C92.0853 216.124 90.8969 215.815 89.6851 215.833C87.4732 215.833 86.4935 216.625 86.4935 217.682C86.4935 220.644 94 218.549 94 222.303C94 223.905 92.4151 225 89.5327 225C87.6734 224.996 85.8882 224.451 85 223.735Z" fill="#1D71B8"/>
<path d="M101 224.248C100.399 224.756 99.6339 225.023 98.8508 224.998C97.004 224.998 96 223.901 96 222.115V212H97.004V214.317H100.355V215.173H97.0242V221.997C97.0242 223.359 97.6855 224.109 98.9718 224.109C99.5623 224.119 100.136 223.91 100.585 223.522L101 224.248Z" fill="#1D71B8"/>
<path d="M103 219.998C103 217.077 105.127 215 108 215C110.873 215 113 217.077 113 219.998C113 222.92 110.873 225 108 225C105.127 225 103 222.923 103 219.998ZM112.019 219.998C112.019 217.527 110.296 215.849 107.996 215.849C105.696 215.849 103.977 217.527 103.977 219.998C103.977 222.469 105.7 224.166 107.996 224.166C110.292 224.166 112.019 222.473 112.019 219.998Z" fill="#1D71B8"/>
<path d="M126 220.153C126 223.202 123.865 225.3 121.039 225.3C120.208 225.323 119.388 225.113 118.668 224.694C117.948 224.275 117.358 223.662 116.961 222.925V229H116V215.087H116.923V217.466C117.309 216.705 117.9 216.07 118.628 215.633C119.357 215.197 120.192 214.978 121.039 215.002C123.865 215.009 126 217.127 126 220.153ZM125.039 220.153C125.039 217.61 123.29 215.883 120.981 215.883C118.672 215.883 116.942 217.61 116.942 220.153C116.942 222.695 118.676 224.442 120.981 224.442C123.286 224.442 125.039 222.699 125.039 220.153Z" fill="#1D71B8"/>
<path d="M139 218.834V225H137.925V218.911C137.925 216.528 136.58 215.257 134.31 215.257C131.674 215.257 130.071 216.853 130.071 219.361V224.98H129V210H130.071V216.654C130.84 215.217 132.383 214.368 134.46 214.368C137.177 214.368 139 215.882 139 218.834Z" fill="#1D71B8"/>
<path d="M150.777 222.769L151.356 223.394C150.867 223.922 150.259 224.34 149.576 224.617C148.892 224.895 148.152 225.024 147.408 224.996C144.241 224.996 142 222.921 142 219.996C142 217.072 144.125 215 147.091 215C149.875 215 151.859 216.962 152 219.583L143.147 221.205C143.65 223.015 145.272 224.148 147.417 224.148C148.051 224.173 148.683 224.062 149.266 223.823C149.848 223.585 150.365 223.224 150.777 222.769V222.769ZM142.982 219.924C142.982 220.11 143.002 220.303 143.022 220.508L150.998 219.038C150.878 218.145 150.413 217.325 149.693 216.734C148.973 216.142 148.046 215.821 147.091 215.83C144.684 215.83 142.982 217.527 142.982 219.924Z" fill="#1D71B8"/>
<path d="M159 223.122L159.456 222.374C160.405 223.36 162.163 224.109 164.02 224.109C166.798 224.109 168.012 222.92 168.012 221.407C168.012 217.263 159.377 219.747 159.377 214.672C159.377 212.719 160.881 211 164.278 211C165.761 210.99 167.214 211.423 168.448 212.244L168.052 213.036C166.93 212.282 165.61 211.877 164.258 211.872C161.571 211.872 160.365 213.116 160.365 214.645C160.365 218.784 169 216.34 169 221.351C169 223.304 167.44 225 164.02 225C161.984 224.996 160.024 224.228 159 223.122Z" fill="#1D71B8"/>
<path d="M181 215.073V224.922H180.059V222.604C179.677 223.346 179.087 223.965 178.359 224.389C177.632 224.813 176.796 225.024 175.95 224.998C173.128 224.998 171 222.941 171 219.998C171 217.054 173.128 215.001 175.95 215.001C176.787 214.981 177.614 215.19 178.337 215.606C179.06 216.023 179.65 216.629 180.04 217.358V215.085L181 215.073ZM180.04 219.998C180.04 217.528 178.313 215.85 176.008 215.85C173.702 215.85 171.979 217.528 171.979 219.998C171.979 222.467 173.706 224.164 176.008 224.164C178.309 224.164 180.04 222.467 180.04 219.994V219.998Z" fill="#1D71B8"/>
<path d="M185 222.166V210H186.02V222.044C186.02 223.393 186.631 224.136 187.898 224.136C188.248 224.134 188.594 224.066 188.918 223.934L189 224.778C188.607 224.924 188.191 224.999 187.77 225C185.959 225 185 223.914 185 222.166Z" fill="#1D71B8"/>
<path d="M191 222.166V210H192.02V222.044C192.02 223.393 192.631 224.136 193.898 224.136C194.248 224.134 194.594 224.066 194.918 223.934L195 224.778C194.607 224.924 194.191 224.999 193.77 225C191.939 225 191 223.914 191 222.166Z" fill="#1D71B8"/>
<path d="M197 211.771C197 211.566 197.105 211.37 197.293 211.226C197.48 211.081 197.735 211 198 211C198.198 211 198.391 211.045 198.556 211.13C198.72 211.215 198.848 211.335 198.924 211.476C199 211.617 199.019 211.772 198.981 211.921C198.942 212.071 198.847 212.208 198.707 212.316C198.567 212.424 198.389 212.497 198.195 212.527C198.001 212.557 197.8 212.542 197.617 212.483C197.435 212.425 197.278 212.326 197.169 212.199C197.059 212.072 197 211.923 197 211.771ZM197.4 214.978H198.645V225H197.4V214.978Z" fill="#1D71B8"/>
<path d="M201 219.998C201 217.077 203.34 215 206.5 215C209.66 215 212 217.077 212 219.998C212 222.92 209.665 225 206.5 225C203.335 225 201 222.923 201 219.998ZM210.921 219.998C210.921 217.527 209.026 215.849 206.5 215.849C203.974 215.849 202.075 217.527 202.075 219.998C202.075 222.469 203.97 224.166 206.5 224.166C209.03 224.166 210.9 222.473 210.9 219.998H210.921Z" fill="#1D71B8"/>
<path d="M220 224.248C219.4 224.757 218.636 225.024 217.853 224.998C216.005 224.998 215 223.901 215 222.115V212H216.005V214.317H219.338V215.173H216.005V221.997C216.005 223.359 216.667 224.109 217.954 224.109C218.545 224.119 219.119 223.91 219.568 223.522L220 224.248Z" fill="#1D71B8"/>
<path d="M39 184.498C39 177.318 44.4963 172 52 172C59.5037 172 65 177.28 65 184.498C65 191.716 59.4671 197 52 197C44.5329 197 39 191.682 39 184.498ZM59.4305 184.498C59.4305 179.905 56.2412 176.766 52 176.766C47.7588 176.766 44.5662 179.905 44.5662 184.498C44.5662 189.091 47.7554 192.234 52 192.234C56.2446 192.234 59.4305 189.091 59.4305 184.498Z" fill="#1D71B8"/>
<path d="M90 180.71C90 186.056 85.952 189.382 79.4813 189.382H74.6054V196H69V172H79.4847C85.952 172 90 175.326 90 180.71ZM84.3267 180.71C84.3267 178.07 82.5962 176.526 79.1726 176.526H74.6054V184.856H79.1726C82.5962 184.856 84.3267 183.312 84.3267 180.71Z" fill="#1D71B8"/>
<path d="M93 184.498C93 177.213 98.3336 172 105.515 172C109.502 172 112.826 173.517 115 176.281L111.576 179.597C110.872 178.703 109.986 177.984 108.983 177.494C107.981 177.004 106.886 176.756 105.78 176.766C101.464 176.766 98.4015 179.943 98.4015 184.498C98.4015 189.054 101.464 192.234 105.78 192.234C106.89 192.247 107.988 191.996 108.992 191.499C109.995 191.003 110.879 190.275 111.576 189.369L115 192.685C112.826 195.479 109.508 197 105.483 197C98.3336 197 93 191.787 93 184.498Z" fill="#1D71B8"/>
<path d="M117 187.507C117 181.945 121.228 178 127.017 178C132.805 178 137 181.945 137 187.507C137 193.068 132.802 197 127.023 197C121.245 197 117 193.068 117 187.507ZM131.653 187.507C131.653 184.315 129.662 182.393 127.007 182.393C124.351 182.393 122.337 184.315 122.337 187.507C122.337 190.698 124.368 192.624 127.023 192.624C129.678 192.624 131.67 190.698 131.67 187.507H131.653Z" fill="#1D71B8"/>
<path d="M159 185.847V196H153.612V186.623C153.612 183.755 152.23 182.42 149.847 182.42C147.255 182.42 145.391 183.936 145.391 187.202V195.971H140V178.265H145.147V180.341C146.598 178.825 148.777 178 151.298 178C155.686 178 159 180.441 159 185.847Z" fill="#1D71B8"/>
<path d="M162 195.015L163.815 191.174C165.79 192.331 168.045 192.946 170.344 192.956C172.857 192.956 173.799 192.307 173.799 191.274C173.799 188.247 162.452 191.342 162.452 183.968C162.452 180.469 165.667 178 171.145 178C173.731 178 176.593 178.582 178.373 179.611L176.555 183.419C174.906 182.502 173.04 182.029 171.145 182.047C168.704 182.047 167.656 182.8 167.656 183.763C167.656 186.918 179 183.863 179 191.137C179 194.564 175.754 197 170.135 197C166.958 196.99 163.746 196.146 162 195.015Z" fill="#1D71B8"/>
<path d="M201 178.003V196.722H195.838V194.493C195.106 195.304 194.208 195.947 193.204 196.379C192.201 196.812 191.115 197.023 190.022 196.998C185.311 196.998 182 194.357 182 188.579V178H187.439V187.77C187.439 190.9 188.835 192.292 191.24 192.292C193.751 192.292 195.568 190.692 195.568 187.248V178.003H201Z" fill="#1D71B8"/>
<path d="M205 190.548V171H210.693V190.235C210.693 191.829 211.57 192.696 213.138 192.696C213.694 192.698 214.243 192.582 214.746 192.356L215 196.551C214.046 196.851 213.047 197.003 212.043 197C207.628 196.98 205 194.705 205 190.548Z" fill="#1D71B8"/>
<path d="M228 195.826C226.924 196.62 225.344 197 223.76 197C219.455 197 217 194.754 217 190.327V174H222.249V178.532H226.723V182.681H222.249V190.256C222.249 191.847 223.054 192.712 224.47 192.712C225.238 192.721 225.99 192.484 226.621 192.034L228 195.826Z" fill="#1D71B8"/>
<path d="M39 205H227" stroke="#1D71B8" stroke-miterlimit="10"/>
<defs>
<linearGradient id="paint0_linear" x1="91.9973" y1="118.013" x2="183" y2="118.013" gradientUnits="userSpaceOnUse">
<stop stop-color="white"/>
<stop offset="0.03" stop-color="#E3EDF6"/>
<stop offset="0.07" stop-color="#BAD4E9"/>
<stop offset="0.12" stop-color="#94BCDD"/>
<stop offset="0.18" stop-color="#74A7D3"/>
<stop offset="0.24" stop-color="#5896CB"/>
<stop offset="0.3" stop-color="#4288C4"/>
<stop offset="0.38" stop-color="#327EBE"/>
<stop offset="0.48" stop-color="#2676BB"/>
<stop offset="0.62" stop-color="#1F72B9"/>
<stop offset="1" stop-color="#1D71B8"/>
</linearGradient>
<linearGradient id="paint1_linear" x1="93.9358" y1="80.0032" x2="150.955" y2="80.0032" gradientUnits="userSpaceOnUse">
<stop stop-color="white"/>
<stop offset="0.5" stop-color="#1D71B8"/>
</linearGradient>
<linearGradient id="paint2_linear" x1="128.877" y1="63.4417" x2="178.006" y2="63.4417" gradientUnits="userSpaceOnUse">
<stop stop-color="white"/>
<stop offset="1" stop-color="#1D71B8"/>
</linearGradient>
<linearGradient id="paint3_linear" x1="5162.16" y1="9729.15" x2="7727.94" y2="9729.15" gradientUnits="userSpaceOnUse">
<stop stop-color="white"/>
<stop offset="1" stop-color="#1D71B8"/>
</linearGradient>
<linearGradient id="paint4_linear" x1="120.983" y1="96.0682" x2="185.991" y2="96.0682" gradientUnits="userSpaceOnUse">
<stop stop-color="white"/>
<stop offset="0.04" stop-color="#EAF2F8"/>
<stop offset="0.15" stop-color="#B4D0E8"/>
<stop offset="0.26" stop-color="#86B3D9"/>
<stop offset="0.37" stop-color="#609BCD"/>
<stop offset="0.48" stop-color="#4389C4"/>
<stop offset="0.59" stop-color="#2E7CBD"/>
<stop offset="0.7" stop-color="#2174B9"/>
<stop offset="0.8" stop-color="#1D71B8"/>
</linearGradient>
<linearGradient id="paint5_linear" x1="152.981" y1="128.984" x2="177" y2="128.984" gradientUnits="userSpaceOnUse">
<stop stop-color="#1D71B8"/>
<stop offset="0.05" stop-color="#2978BC"/>
<stop offset="0.52" stop-color="#9BC0E0"/>
<stop offset="0.85" stop-color="#E3EDF6"/>
<stop offset="1" stop-color="white"/>
</linearGradient>
<radialGradient id="paint6_radial" cx="0" cy="0" r="1" gradientUnits="userSpaceOnUse" gradientTransform="translate(8175.25 11318.3) scale(1891.25 1853.42)">
<stop stop-color="white"/>
<stop offset="1" stop-color="#1D71B8"/>
</radialGradient>
<linearGradient id="paint7_linear" x1="105" y1="106.503" x2="144.968" y2="106.503" gradientUnits="userSpaceOnUse">
<stop stop-color="white"/>
<stop offset="0.05" stop-color="#F7FAFC"/>
<stop offset="0.13" stop-color="#DFEBF5"/>
<stop offset="0.23" stop-color="#BAD4E9"/>
<stop offset="0.35" stop-color="#85B3D9"/>
<stop offset="0.48" stop-color="#4389C4"/>
<stop offset="0.55" stop-color="#1D71B8"/>
</linearGradient>
<linearGradient id="paint8_linear" x1="2002.2" y1="6505.68" x2="2679.45" y2="6505.68" gradientUnits="userSpaceOnUse">
<stop stop-color="white"/>
<stop offset="1" stop-color="#1D71B8"/>
</linearGradient>
</defs>
</svg>
