{
  "accessors": [
    {
      "bufferView": 2,
      "componentType": 5126,
      "count": 2150,
      "max": [
        2.1875286102294922,
        5.6711845397949219,
        2.2741832733154297
      ],
      "min": [
        -2.1214780807495117,
        -5.6711845397949219,
        -1.3698065280914307
      ],
      "type": "VEC3"
    },
    {
      "bufferView": 2,
      "byteOffset": 25800,
      "componentType": 5126,
      "count": 2150,
      "max": [
        1,
        1,
        1
      ],
      "min": [
        -1,
        -1,
        -1
      ],
      "type": "VEC3"
    },
    {
      "bufferView": 3,
      "componentType": 5126,
      "count": 2150,
      "max": [
        1,
        1,
        0.99921631813049316,
        1
      ],
      "min": [
        -1,
        -1,
        -1,
        -1
      ],
      "type": "VEC4"
    },
    {
      "bufferView": 1,
      "componentType": 5126,
      "count": 2150,
      "max": [
        1,
        1
      ],
      "min": [
        0,
        0
      ],
      "type": "VEC2"
    },
    {
      "bufferView": 0,
      "componentType": 5125,
      "count": 3510,
      "max": [
        2149
      ],
      "min": [
        0
      ],
      "type": "SCALAR"
    },
    {
      "bufferView": 4,
      "componentType": 5126,
      "count": 1,
      "max": [
        0
      ],
      "min": [
        0
      ],
      "type": "SCALAR"
    },
    {
      "bufferView": 6,
      "componentType": 5126,
      "count": 1,
      "max": [
        -0.7071068286895752,
        0,
        0,
        0.70710670948028564
      ],
      "min": [
        -0.7071068286895752,
        0,
        0,
        0.70710670948028564
      ],
      "type": "VEC4"
    },
    {
      "bufferView": 4,
      "byteOffset": 4,
      "componentType": 5126,
      "count": 1,
      "max": [
        0
      ],
      "min": [
        0
      ],
      "type": "SCALAR"
    },
    {
      "bufferView": 6,
      "byteOffset": 16,
      "componentType": 5126,
      "count": 1,
      "max": [
        -0.7071068286895752,
        0,
        0,
        0.70710670948028564
      ],
      "min": [
        -0.7071068286895752,
        0,
        0,
        0.70710670948028564
      ],
      "type": "VEC4"
    },
    {
      "bufferView": 4,
      "byteOffset": 8,
      "componentType": 5126,
      "count": 150,
      "max": [
        2.875
      ],
      "min": [
        0
      ],
      "type": "SCALAR"
    },
    {
      "bufferView": 5,
      "componentType": 5126,
      "count": 150,
      "max": [
        -353.30267333984375,
        219.63093566894531,
        26.518573760986328
      ],
      "min": [
        -357.30377197265625,
        181.81021118164062,
        -5.9851546287536621
      ],
      "type": "VEC3"
    },
    {
      "bufferView": 4,
      "byteOffset": 608,
      "componentType": 5126,
      "count": 4,
      "max": [
        2.875
      ],
      "min": [
        0
      ],
      "type": "SCALAR"
    },
    {
      "bufferView": 5,
      "byteOffset": 1800,
      "componentType": 5126,
      "count": 4,
      "max": [
        312.16659545898438,
        100,
        100
      ],
      "min": [
        312.16659545898438,
        99.999992370605469,
        99.999992370605469
      ],
      "type": "VEC3"
    },
    {
      "bufferView": 4,
      "byteOffset": 624,
      "componentType": 5126,
      "count": 150,
      "max": [
        2.875
      ],
      "min": [
        0
      ],
      "type": "SCALAR"
    },
    {
      "bufferView": 6,
      "byteOffset": 32,
      "componentType": 5126,
      "count": 150,
      "max": [
        0.99921071529388428,
        0.062711969017982483,
        0.066046178340911865,
        1
      ],
      "min": [
        -0.85843580961227417,
        -0.04253024235367775,
        -0.030101709067821503,
        -0.46685224771499634
      ],
      "type": "VEC4"
    },
    {
      "bufferView": 4,
      "byteOffset": 1224,
      "componentType": 5126,
      "count": 1,
      "max": [
        0
      ],
      "min": [
        0
      ],
      "type": "SCALAR"
    },
    {
      "bufferView": 6,
      "byteOffset": 2432,
      "componentType": 5126,
      "count": 1,
      "max": [
        -0.7071068286895752,
        0,
        0,
        0.70710670948028564
      ],
      "min": [
        -0.7071068286895752,
        0,
        0,
        0.70710670948028564
      ],
      "type": "VEC4"
    },
    {
      "bufferView": 4,
      "byteOffset": 1228,
      "componentType": 5126,
      "count": 150,
      "max": [
        2.875
      ],
      "min": [
        0
      ],
      "type": "SCALAR"
    },
    {
      "bufferView": 5,
      "byteOffset": 1848,
      "componentType": 5126,
      "count": 150,
      "max": [
        -66.005355834960938,
        166.85116577148438,
        17.977228164672852
      ],
      "min": [
        -70.010307312011719,
        132.94990539550781,
        -5.7344808578491211
      ],
      "type": "VEC3"
    },
    {
      "bufferView": 4,
      "byteOffset": 1828,
      "componentType": 5126,
      "count": 4,
      "max": [
        2.875
      ],
      "min": [
        0
      ],
      "type": "SCALAR"
    },
    {
      "bufferView": 5,
      "byteOffset": 3648,
      "componentType": 5126,
      "count": 4,
      "max": [
        312.16659545898438,
        100.00000762939453,
        100.00000762939453
      ],
      "min": [
        312.16659545898438,
        100,
        100
      ],
      "type": "VEC3"
    },
    {
      "bufferView": 4,
      "byteOffset": 1844,
      "componentType": 5126,
      "count": 150,
      "max": [
        2.875
      ],
      "min": [
        0
      ],
      "type": "SCALAR"
    },
    {
      "bufferView": 6,
      "byteOffset": 2448,
      "componentType": 5126,
      "count": 150,
      "max": [
        -0.60876154899597168,
        0.04967891052365303,
        0.10099498182535172,
        0.79335325956344604
      ],
      "min": [
        -0.75655543804168701,
        -0.025507865473628044,
        -0.029627621173858643,
        0.65225601196289062
      ],
      "type": "VEC4"
    },
    {
      "bufferView": 4,
      "byteOffset": 2444,
      "componentType": 5126,
      "count": 169,
      "max": [
        3.2916667461395264
      ],
      "min": [
        0
      ],
      "type": "SCALAR"
    },
    {
      "bufferView": 6,
      "byteOffset": 4848,
      "componentType": 5126,
      "count": 169,
      "max": [
        -0.57406133413314819,
        0,
        0,
        0.81881231069564819
      ],
      "min": [
        -0.81915205717086792,
        0,
        0,
        0.57357645034790039
      ],
      "type": "VEC4"
    }
  ],
  "animations": [
    {
      "channels": [
        {
          "sampler": 0,
          "target": {
            "node": 5,
            "path": "rotation"
          }
        }
      ],
      "name": "Cube|Cube.001Action",
      "samplers": [
        {
          "input": 5,
          "interpolation": "LINEAR",
          "output": 6
        }
      ]
    },
    {
      "channels": [
        {
          "sampler": 0,
          "target": {
            "node": 5,
            "path": "rotation"
          }
        }
      ],
      "name": "Cube|Cube.001Action.001",
      "samplers": [
        {
          "input": 7,
          "interpolation": "LINEAR",
          "output": 8
        }
      ]
    },
    {
      "channels": [
        {
          "sampler": 0,
          "target": {
            "node": 5,
            "path": "translation"
          }
        },
        {
          "sampler": 1,
          "target": {
            "node": 5,
            "path": "scale"
          }
        },
        {
          "sampler": 2,
          "target": {
            "node": 5,
            "path": "rotation"
          }
        }
      ],
      "name": "Cube|Cube.001Action.002",
      "samplers": [
        {
          "input": 9,
          "interpolation": "LINEAR",
          "output": 10
        },
        {
          "input": 11,
          "interpolation": "LINEAR",
          "output": 12
        },
        {
          "input": 13,
          "interpolation": "LINEAR",
          "output": 14
        }
      ]
    },
    {
      "channels": [
        {
          "sampler": 0,
          "target": {
            "node": 5,
            "path": "rotation"
          }
        }
      ],
      "name": "Cube|CubeAction",
      "samplers": [
        {
          "input": 15,
          "interpolation": "LINEAR",
          "output": 16
        }
      ]
    },
    {
      "channels": [
        {
          "sampler": 0,
          "target": {
            "node": 5,
            "path": "translation"
          }
        },
        {
          "sampler": 1,
          "target": {
            "node": 5,
            "path": "scale"
          }
        },
        {
          "sampler": 2,
          "target": {
            "node": 5,
            "path": "rotation"
          }
        }
      ],
      "name": "Cube|CubeAction.001",
      "samplers": [
        {
          "input": 17,
          "interpolation": "LINEAR",
          "output": 18
        },
        {
          "input": 19,
          "interpolation": "LINEAR",
          "output": 20
        },
        {
          "input": 21,
          "interpolation": "LINEAR",
          "output": 22
        }
      ]
    },
    {
      "channels": [
        {
          "sampler": 0,
          "target": {
            "node": 5,
            "path": "rotation"
          }
        }
      ],
      "name": "Cube|CubeAction.002",
      "samplers": [
        {
          "input": 23,
          "interpolation": "LINEAR",
          "output": 24
        }
      ]
    }
  ],
  "asset": {
    "extras": {
      "author": "Nyarlathotep (https://sketchfab.com/MICHAUD)",
      "license": "CC-BY-4.0 (http://creativecommons.org/licenses/by/4.0/)",
      "source": "https://sketchfab.com/models/957e202d8c934baea5413f305f0c85fd",
      "title": "Avion-A6-Anim"
    },
    "generator": "Sketchfab-3.18.7",
    "version": "2.0"
  },
  "bufferViews": [
    {
      "buffer": 0,
      "byteLength": 14040,
      "byteOffset": 0,
      "name": "floatBufferViews",
      "target": 34963
    },
    {
      "buffer": 0,
      "byteLength": 17200,
      "byteOffset": 14040,
      "byteStride": 8,
      "name": "floatBufferViews",
      "target": 34962
    },
    {
      "buffer": 0,
      "byteLength": 51600,
      "byteOffset": 31240,
      "byteStride": 12,
      "name": "floatBufferViews",
      "target": 34962
    },
    {
      "buffer": 0,
      "byteLength": 34400,
      "byteOffset": 82840,
      "byteStride": 16,
      "name": "floatBufferViews",
      "target": 34962
    },
    {
      "buffer": 0,
      "byteLength": 3120,
      "byteOffset": 117240,
      "name": "floatBufferViews"
    },
    {
      "buffer": 0,
      "byteLength": 3696,
      "byteOffset": 120360,
      "byteStride": 12,
      "name": "floatBufferViews"
    },
    {
      "buffer": 0,
      "byteLength": 7552,
      "byteOffset": 124056,
      "byteStride": 16,
      "name": "floatBufferViews"
    }
  ],
  "buffers": [
    {
      "byteLength": 131608,
      "uri": "scene.bin"
    }
  ],
  "images": [
    {
      "uri": "textures/Avion-color_baseColor.png"
    }
  ],
  "materials": [
    {
      "doubleSided": true,
      "emissiveFactor": [
        0,
        0,
        0
      ],
      "name": "Avion-color",
      "pbrMetallicRoughness": {
        "baseColorFactor": [
          1,
          1,
          1,
          1
        ],
        "baseColorTexture": {
          "index": 0,
          "texCoord": 0
        },
        "metallicFactor": 0,
        "roughnessFactor": 0.59999999999999998
      }
    }
  ],
  "meshes": [
    {
      "name": "Cube_Avion-color_0",
      "primitives": [
        {
          "attributes": {
            "NORMAL": 1,
            "POSITION": 0,
            "TANGENT": 2,
            "TEXCOORD_0": 3
          },
          "indices": 4,
          "material": 0,
          "mode": 4
        }
      ]
    }
  ],
  "nodes": [
    {
      "children": [
        1
      ],
      "name": "RootNode (gltf orientation matrix)",
      "rotation": [
        -0.70710678118654746,
        -0,
        -0,
        0.70710678118654757
      ]
    },
    {
      "children": [
        2
      ],
      "name": "RootNode (model correction matrix)"
    },
    {
      "children": [
        3
      ],
      "matrix": [
        1,
        0,
        0,
        0,
        0,
        0,
        1,
        0,
        0,
        -1,
        0,
        0,
        0,
        0,
        0,
        1
      ],
      "name": "84af3cdb7a8e4571990c180f557559fe.fbx"
    },
    {
      "children": [
        4
      ],
      "name": ""
    },
    {
      "children": [
        5
      ],
      "name": "RootNode"
    },
    {
      "children": [
        6
      ],
      "name": "Cube",
      "rotation": [
        -0.7071068286895752,
        0,
        0,
        0.70710670948028564
      ],
      "scale": [
        312.16659545898438,
        100,
        100
      ],
      "translation": [
        -66.806121826171875,
        143.41519165039062,
        -1.301619613514049e-05
      ]
    },
    {
      "mesh": 0,
      "name": "Cube_Avion-color_0"
    }
  ],
  "samplers": [
    {
      "magFilter": 9729,
      "minFilter": 9987,
      "wrapS": 10497,
      "wrapT": 10497
    }
  ],
  "scene": 0,
  "scenes": [
    {
      "name": "OSG_Scene",
      "nodes": [
        0
      ]
    }
  ],
  "textures": [
    {
      "sampler": 0,
      "source": 0
    }
  ]
}

